999
dxflib 3.12.2.0
  0
SECTION
  2
HEADER
  9
$ACADVER
  1
AC1015
  9
$HANDSEED
  5
FFFF
  9
$DIMADEC
 70
0
  9
$DIMASZ
 40
2.5
  9
$DIMAUNIT
 70
0
  9
$DIMAZIN
 70
2
  9
$DIMDEC
 70
4
  9
$DIMEXE
 40
1.25
  9
$DIMEXO
 40
0.625
  9
$DIMGAP
 40
0.625
  9
$DIMLUNIT
 70
2
  9
$DIMSCALE
 40
1.0
  9
$DIMTSZ
 40
0.0
  9
$DIMTXT
 40
2.5
  9
$DIMZIN
 70
8
  9
$DWGCODEPAGE
  3
ANSI_1252
  9
$INSUNITS
 70
4
  9
$LTSCALE
 40
1.0
  9
$MEASUREMENT
 70
1
  9
$PDMODE
 70
0
  9
$PDSIZE
 40
0
  0
ENDSEC
  0
SECTION
  2
TABLES
  0
TABLE
  2
VPORT
  5
8
100
AcDbSymbolTable
 70
1
  0
VPORT
  5
30
100
AcDbSymbolTableRecord
100
AcDbViewportTableRecord
  2
*Active
 70
0
 10
0.0
 20
0.0
 11
1.0
 21
1.0
 12
286.3055555555554861
 22
148.5
 13
0.0
 23
0.0
 14
10.0
 24
10.0
 15
10.0
 25
10.0
 16
0.0
 26
0.0
 36
1.0
 17
0.0
 27
0.0
 37
0.0
 40
297.0
 41
1.92798353909465
 42
50.0
 43
0.0
 44
0.0
 50
0.0
 51
0.0
 71
0
 72
100
 73
1
 74
3
 75
1
 76
1
 77
0
 78
0
281
0
 65
1
110
0.0
120
0.0
130
0.0
111
1.0
121
0.0
131
0.0
112
0.0
122
1.0
132
0.0
 79
0
146
0.0
  0
ENDTAB
  0
TABLE
  2
LTYPE
  5
5
100
AcDbSymbolTable
 70
41
  0
LTYPE
  5
16
100
AcDbSymbolTableRecord
100
AcDbLinetypeTableRecord
  2
Continuous
 70
0
  3
Solid line
 72
65
 73
0
 40
0.0
  0
LTYPE
  5
31
100
AcDbSymbolTableRecord
100
AcDbLinetypeTableRecord
  2
ACAD_ISO15W100
 70
0
  3
ISO double-dash triple-dot __ __ . . . __ __ . .
 72
65
 73
10
 40
39.0000000000000071
 49
12.0
 74
0
 49
-3.0
 74
0
 49
12.0
 74
0
 49
-2.9500000000000002
 74
0
 49
0.1
 74
0
 49
-2.9000000000000004
 74
0
 49
0.1
 74
0
 49
-2.9000000000000004
 74
0
 49
0.1
 74
0
 49
-2.9500000000000002
 74
0
  0
LTYPE
  5
32
100
AcDbSymbolTableRecord
100
AcDbLinetypeTableRecord
  2
DIVIDE
 70
0
  3
Divide ____ . . ____ . . ____ . . ____ . . ____
 72
65
 73
6
 40
31.7500000000000036
 49
12.6999999999999993
 74
0
 49
-6.2999999999999998
 74
0
 49
0.1
 74
0
 49
-6.25
 74
0
 49
0.1
 74
0
 49
-6.2999999999999998
 74
0
  0
LTYPE
  5
33
100
AcDbSymbolTableRecord
100
AcDbLinetypeTableRecord
  2
ACAD_ISO10W100
 70
0
  3
ISO dash dot __ . __ . __ . __ . __ . __ . __ . 
 72
65
 73
4
 40
18.0
 49
12.0
 74
0
 49
-2.9500000000000002
 74
0
 49
0.1
 74
0
 49
-2.9500000000000002
 74
0
  0
LTYPE
  5
34
100
AcDbSymbolTableRecord
100
AcDbLinetypeTableRecord
  2
ACAD_ISO04W100
 70
0
  3
ISO long-dash dot ____ . ____ . ____ . ____ . _
 72
65
 73
4
 40
30.0
 49
24.0
 74
0
 49
-2.9500000000000002
 74
0
 49
0.1
 74
0
 49
-2.9500000000000002
 74
0
  0
LTYPE
  5
35
100
AcDbSymbolTableRecord
100
AcDbLinetypeTableRecord
  2
CENTER2
 70
0
  3
Center (.5x) ___ _ ___ _ ___ _ ___ _ ___ _ ___
 72
65
 73
4
 40
28.5750000000000028
 49
19.0500000000000007
 74
0
 49
-3.1749999999999998
 74
0
 49
3.1749999999999998
 74
0
 49
-3.1749999999999998
 74
0
  0
LTYPE
  5
36
100
AcDbSymbolTableRecord
100
AcDbLinetypeTableRecord
  2
ACAD_ISO11W100
 70
0
  3
ISO double-dash dot __ __ . __ __ . __ __ . __ _
 72
65
 73
6
 40
33.0
 49
12.0
 74
0
 49
-3.0
 74
0
 49
12.0
 74
0
 49
-2.9500000000000002
 74
0
 49
0.1
 74
0
 49
-2.9500000000000002
 74
0
  0
LTYPE
  5
37
100
AcDbSymbolTableRecord
100
AcDbLinetypeTableRecord
  2
HIDDEN2
 70
0
  3
Hidden (.5x) _ _ _ _ _ _ _ _ _ _ _ _ _ _ _ _ _ 
 72
65
 73
2
 40
4.7624999999999993
 49
3.1749999999999998
 74
0
 49
-1.5874999999999999
 74
0
  0
LTYPE
  5
38
100
AcDbSymbolTableRecord
100
AcDbLinetypeTableRecord
  2
BORDERX2
 70
0
  3
Border (2x) ____  ____  .  ____  ____  .  ___
 72
65
 73
6
 40
88.8999999999999773
 49
25.3999999999999986
 74
0
 49
-12.6999999999999993
 74
0
 49
25.3999999999999986
 74
0
 49
-12.6499999999999986
 74
0
 49
0.1
 74
0
 49
-12.6499999999999986
 74
0
  0
LTYPE
  5
39
100
AcDbSymbolTableRecord
100
AcDbLinetypeTableRecord
  2
ACAD_ISO05W100
 70
0
  3
ISO long-dash double-dot ____ .. ____ .. ____ . 
 72
65
 73
6
 40
33.0000000000000071
 49
24.0
 74
0
 49
-2.9500000000000002
 74
0
 49
0.1
 74
0
 49
-2.9000000000000004
 74
0
 49
0.1
 74
0
 49
-2.9500000000000002
 74
0
  0
LTYPE
  5
3A
100
AcDbSymbolTableRecord
100
AcDbLinetypeTableRecord
  2
DASHDOTX2
 70
0
  3
Dash dot (2x) ____  .  ____  .  ____  .  ___
 72
65
 73
4
 40
50.7999999999999972
 49
25.3999999999999986
 74
0
 49
-12.6499999999999986
 74
0
 49
0.1
 74
0
 49
-12.6499999999999986
 74
0
  0
LTYPE
  5
3B
100
AcDbSymbolTableRecord
100
AcDbLinetypeTableRecord
  2
HIDDENX2
 70
0
  3
Hidden (2x) ____ ____ ____ ____ ____ ____ ____ 
 72
65
 73
2
 40
19.0499999999999972
 49
12.6999999999999993
 74
0
 49
-6.3499999999999996
 74
0
  0
LTYPE
  5
3C
100
AcDbSymbolTableRecord
100
AcDbLinetypeTableRecord
  2
CENTERX2
 70
0
  3
Center (2x) ________  __  ________  __  _____
 72
65
 73
4
 40
101.6000000000000085
 49
63.5
 74
0
 49
-12.6999999999999993
 74
0
 49
12.6999999999999993
 74
0
 49
-12.6999999999999993
 74
0
  0
LTYPE
  5
3D
100
AcDbSymbolTableRecord
100
AcDbLinetypeTableRecord
  2
BORDER2
 70
0
  3
Border (.5x) __.__.__.__.__.__.__.__.__.__.__.
 72
65
 73
6
 40
22.2250000000000014
 49
6.3499999999999996
 74
0
 49
-3.1749999999999998
 74
0
 49
6.3499999999999996
 74
0
 49
-3.125
 74
0
 49
0.1
 74
0
 49
-3.125
 74
0
  0
LTYPE
  5
3E
100
AcDbSymbolTableRecord
100
AcDbLinetypeTableRecord
  2
DASHDOT2
 70
0
  3
Dash dot (.5x) _._._._._._._._._._._._._._._.
 72
65
 73
4
 40
12.6999999999999993
 49
6.3499999999999996
 74
0
 49
-3.125
 74
0
 49
0.1
 74
0
 49
-3.125
 74
0
  0
LTYPE
  5
3F
100
AcDbSymbolTableRecord
100
AcDbLinetypeTableRecord
  2
ACAD_ISO12W100
 70
0
  3
ISO dash double-dot __ . . __ . . __ . . __ . . 
 72
65
 73
6
 40
21.0
 49
12.0
 74
0
 49
-2.9500000000000002
 74
0
 49
0.1
 74
0
 49
-2.9000000000000004
 74
0
 49
0.1
 74
0
 49
-2.9500000000000002
 74
0
  0
LTYPE
  5
40
100
AcDbSymbolTableRecord
100
AcDbLinetypeTableRecord
  2
ACAD_ISO07W100
 70
0
  3
ISO dot . . . . . . . . . . . . . . . . . . . . 
 72
65
 73
2
 40
3.0
 49
0.1
 74
0
 49
-2.8999999999999999
 74
0
  0
LTYPE
  5
41
100
AcDbSymbolTableRecord
100
AcDbLinetypeTableRecord
  2
HIDDEN
 70
0
  3
Hidden __ __ __ __ __ __ __ __ __ __ __ __ __ __
 72
65
 73
2
 40
9.5249999999999986
 49
6.3499999999999996
 74
0
 49
-3.1749999999999998
 74
0
  0
LTYPE
  5
42
100
AcDbSymbolTableRecord
100
AcDbLinetypeTableRecord
  2
ACAD_ISO06W100
 70
0
  3
ISO long-dash triple-dot ____ ... ____ ... ____
 72
65
 73
8
 40
36.0000000000000071
 49
24.0
 74
0
 49
-2.9500000000000002
 74
0
 49
0.1
 74
0
 49
-2.9000000000000004
 74
0
 49
0.1
 74
0
 49
-2.9000000000000004
 74
0
 49
0.1
 74
0
 49
-2.9500000000000002
 74
0
  0
LTYPE
  5
43
100
AcDbSymbolTableRecord
100
AcDbLinetypeTableRecord
  2
CENTER
 70
0
  3
Center ____ _ ____ _ ____ _ ____ _ ____ _ ____
 72
65
 73
4
 40
50.8000000000000043
 49
31.75
 74
0
 49
-6.3499999999999996
 74
0
 49
6.3499999999999996
 74
0
 49
-6.3499999999999996
 74
0
  0
LTYPE
  5
44
100
AcDbSymbolTableRecord
100
AcDbLinetypeTableRecord
  2
DOTX2
 70
0
  3
Dot (2x) .  .  .  .  .  .  .  .  .  .  .  .  .  .
 72
65
 73
2
 40
12.6999999999999993
 49
0.1
 74
0
 49
-12.5999999999999996
 74
0
  0
LTYPE
  5
45
100
AcDbSymbolTableRecord
100
AcDbLinetypeTableRecord
  2
PHANTOM
 70
0
  3
Phantom ______  __  __  ______  __  __  ______ 
 72
65
 73
6
 40
63.5000000000000071
 49
31.75
 74
0
 49
-6.3499999999999996
 74
0
 49
6.3499999999999996
 74
0
 49
-6.3499999999999996
 74
0
 49
6.3499999999999996
 74
0
 49
-6.3499999999999996
 74
0
  0
LTYPE
  5
46
100
AcDbSymbolTableRecord
100
AcDbLinetypeTableRecord
  2
ACAD_ISO08W100
 70
0
  3
ISO long-dash short-dash ____ __ ____ __ ____ _
 72
65
 73
4
 40
36.0
 49
24.0
 74
0
 49
-3.0
 74
0
 49
6.0
 74
0
 49
-3.0
 74
0
  0
LTYPE
  5
47
100
AcDbSymbolTableRecord
100
AcDbLinetypeTableRecord
  2
DASHEDX2
 70
0
  3
Dashed (2x) ____  ____  ____  ____  ____  ___
 72
65
 73
2
 40
38.0999999999999943
 49
25.3999999999999986
 74
0
 49
-12.6999999999999993
 74
0
  0
LTYPE
  5
48
100
AcDbSymbolTableRecord
100
AcDbLinetypeTableRecord
  2
ACAD_ISO02W100
 70
0
  3
ISO dash __ __ __ __ __ __ __ __ __ __ __ __ __
 72
65
 73
2
 40
15.0
 49
12.0
 74
0
 49
-3.0
 74
0
  0
LTYPE
  5
49
100
AcDbSymbolTableRecord
100
AcDbLinetypeTableRecord
  2
PHANTOM2
 70
0
  3
Phantom (.5x) ___ _ _ ___ _ _ ___ _ _ ___ _ _
 72
65
 73
6
 40
31.7500000000000036
 49
15.875
 74
0
 49
-3.1749999999999998
 74
0
 49
3.1749999999999998
 74
0
 49
-3.1749999999999998
 74
0
 49
3.1749999999999998
 74
0
 49
-3.1749999999999998
 74
0
  0
LTYPE
  5
4A
100
AcDbSymbolTableRecord
100
AcDbLinetypeTableRecord
  2
DASHED2
 70
0
  3
Dashed (.5x) _ _ _ _ _ _ _ _ _ _ _ _ _ _ _ _ _ 
 72
65
 73
2
 40
9.5249999999999986
 49
6.3499999999999996
 74
0
 49
-3.1749999999999998
 74
0
  0
LTYPE
  5
4B
100
AcDbSymbolTableRecord
100
AcDbLinetypeTableRecord
  2
ACAD_ISO09W100
 70
0
  3
ISO long-dash double-short-dash ____ __ __ ____
 72
65
 73
6
 40
45.0
 49
24.0
 74
0
 49
-3.0
 74
0
 49
6.0
 74
0
 49
-3.0
 74
0
 49
6.0
 74
0
 49
-3.0
 74
0
  0
LTYPE
  5
4C
100
AcDbSymbolTableRecord
100
AcDbLinetypeTableRecord
  2
ACAD_ISO13W100
 70
0
  3
ISO double-dash double-dot __ __ . . __ __ . . _
 72
65
 73
8
 40
36.0000000000000071
 49
12.0
 74
0
 49
-3.0
 74
0
 49
12.0
 74
0
 49
-2.9500000000000002
 74
0
 49
0.1
 74
0
 49
-2.9000000000000004
 74
0
 49
0.1
 74
0
 49
-2.9500000000000002
 74
0
  0
LTYPE
  5
4D
100
AcDbSymbolTableRecord
100
AcDbLinetypeTableRecord
  2
DOT2
 70
0
  3
Dot (.5x) ........................................
 72
65
 73
2
 40
3.1749999999999998
 49
0.1
 74
0
 49
-3.0749999999999997
 74
0
  0
LTYPE
  5
4E
100
AcDbSymbolTableRecord
100
AcDbLinetypeTableRecord
  2
DASHED
 70
0
  3
Dashed __ __ __ __ __ __ __ __ __ __ __ __ __ _
 72
65
 73
2
 40
19.0499999999999972
 49
12.6999999999999993
 74
0
 49
-6.3499999999999996
 74
0
  0
LTYPE
  5
4F
100
AcDbSymbolTableRecord
100
AcDbLinetypeTableRecord
  2
ACAD_ISO14W100
 70
0
  3
ISO dash triple-dot __ . . . __ . . . __ . . . _
 72
65
 73
8
 40
24.0000000000000036
 49
12.0
 74
0
 49
-2.9500000000000002
 74
0
 49
0.1
 74
0
 49
-2.9000000000000004
 74
0
 49
0.1
 74
0
 49
-2.9000000000000004
 74
0
 49
0.1
 74
0
 49
-2.9500000000000002
 74
0
  0
LTYPE
  5
15
100
AcDbSymbolTableRecord
100
AcDbLinetypeTableRecord
  2
BYLAYER
 70
0
  3

 72
65
 73
0
 40
0.0
  0
LTYPE
  5
50
100
AcDbSymbolTableRecord
100
AcDbLinetypeTableRecord
  2
PHANTOMX2
 70
0
  3
Phantom (2x) ____________    ____    ____   _
 72
65
 73
6
 40
127.0000000000000142
 49
63.5
 74
0
 49
-12.6999999999999993
 74
0
 49
12.6999999999999993
 74
0
 49
-12.6999999999999993
 74
0
 49
12.6999999999999993
 74
0
 49
-12.6999999999999993
 74
0
  0
LTYPE
  5
14
100
AcDbSymbolTableRecord
100
AcDbLinetypeTableRecord
  2
BYBLOCK
 70
0
  3

 72
65
 73
0
 40
0.0
  0
LTYPE
  5
51
100
AcDbSymbolTableRecord
100
AcDbLinetypeTableRecord
  2
DIVIDEX2
 70
0
  3
Divide (2x) ________  .  .  ________  .  .  _
 72
65
 73
6
 40
63.5
 49
25.3999999999999986
 74
0
 49
-12.6499999999999986
 74
0
 49
0.1
 74
0
 49
-12.5999999999999979
 74
0
 49
0.1
 74
0
 49
-12.6499999999999986
 74
0
  0
LTYPE
  5
52
100
AcDbSymbolTableRecord
100
AcDbLinetypeTableRecord
  2
BORDER
 70
0
  3
Border __ __ . __ __ . __ __ . __ __ . __ __ .
 72
65
 73
6
 40
44.4499999999999957
 49
12.6999999999999993
 74
0
 49
-6.3499999999999996
 74
0
 49
12.6999999999999993
 74
0
 49
-6.2999999999999998
 74
0
 49
0.1
 74
0
 49
-6.2999999999999998
 74
0
  0
LTYPE
  5
53
100
AcDbSymbolTableRecord
100
AcDbLinetypeTableRecord
  2
DIVIDE2
 70
0
  3
Divide (.5x) __..__..__..__..__..__..__..__.._
 72
65
 73
6
 40
15.8749999999999982
 49
6.3499999999999996
 74
0
 49
-3.125
 74
0
 49
0.1
 74
0
 49
-3.0750000000000002
 74
0
 49
0.1
 74
0
 49
-3.125
 74
0
  0
LTYPE
  5
54
100
AcDbSymbolTableRecord
100
AcDbLinetypeTableRecord
  2
DOT
 70
0
  3
Dot . . . . . . . . . . . . . . . . . . . . . . . .
 72
65
 73
2
 40
6.3499999999999996
 49
0.1
 74
0
 49
-6.25
 74
0
  0
LTYPE
  5
55
100
AcDbSymbolTableRecord
100
AcDbLinetypeTableRecord
  2
DASHDOT
 70
0
  3
Dash dot __ . __ . __ . __ . __ . __ . __ . __
 72
65
 73
4
 40
25.4000000000000021
 49
12.6999999999999993
 74
0
 49
-6.2999999999999998
 74
0
 49
0.1
 74
0
 49
-6.2999999999999998
 74
0
  0
LTYPE
  5
56
100
AcDbSymbolTableRecord
100
AcDbLinetypeTableRecord
  2
ACAD_ISO03W100
 70
0
  3
ISO dash space __    __    __    __    __    __
 72
65
 73
2
 40
30.0
 49
12.0
 74
0
 49
-18.0
 74
0
  0
ENDTAB
  0
TABLE
  2
LAYER
  5
2
100
AcDbSymbolTable
 70
1
  0
LAYER
  5
10
100
AcDbSymbolTableRecord
100
AcDbLayerTableRecord
  2
0
 70
0
 62
7
420
16777215
  6
Continuous
370
25
390
F
  0
ENDTAB
  0
TABLE
  2
STYLE
  5
3
100
AcDbSymbolTable
 70
2
  0
STYLE
  5
57
100
AcDbSymbolTableRecord
100
AcDbTextStyleTableRecord
  2
Standard
 70
0
 40
0.0
 41
1.0
 50
0.0
 71
0
 42
2.5
  3

  4

1001
ACAD
1000
txt
1071
0
  0
STYLE
  5
58
100
AcDbSymbolTableRecord
100
AcDbTextStyleTableRecord
  2
textstyle0
 70
0
 40
0.0
 41
1.0
 50
0.0
 71
0
 42
1.0
  3

  4

1001
ACAD
1000
Liberation Sans
1071
33554432
  0
ENDTAB
  0
TABLE
  2
VIEW
  5
6
100
AcDbSymbolTable
 70
0
  0
ENDTAB
  0
TABLE
  2
UCS
  5
7
100
AcDbSymbolTable
 70
0
  0
ENDTAB
  0
TABLE
  2
APPID
  5
9
100
AcDbSymbolTable
 70
1
  0
APPID
  5
12
100
AcDbSymbolTableRecord
100
AcDbRegAppTableRecord
  2
ACAD
 70
0
  0
APPID
  5
59
100
AcDbSymbolTableRecord
100
AcDbRegAppTableRecord
  2
QCAD
 70
0
  0
ENDTAB
  0
TABLE
  2
DIMSTYLE
  5
A
100
AcDbSymbolTable
 70
1
100
AcDbDimStyleTable
 71
0
  0
DIMSTYLE
105
27
100
AcDbSymbolTableRecord
100
AcDbDimStyleTableRecord
  2
Standard
 41
2.5
 42
0.625
 43
3.75
 44
1.25
 70
0
 73
0
 74
0
 77
1
 78
8
140
2.5
141
2.5
143
0.03937007874016
147
0.625
171
3
172
1
271
2
272
2
274
3
278
44
283
0
284
8
340
57
  0
ENDTAB
  0
TABLE
  2
BLOCK_RECORD
  5
1
100
AcDbSymbolTable
 70
1
  0
BLOCK_RECORD
  5
1F
100
AcDbSymbolTableRecord
100
AcDbBlockTableRecord
  2
*Model_Space
340
22
  0
BLOCK_RECORD
  5
1B
100
AcDbSymbolTableRecord
100
AcDbBlockTableRecord
  2
*Paper_Space
340
1E
  0
BLOCK_RECORD
  5
23
100
AcDbSymbolTableRecord
100
AcDbBlockTableRecord
  2
*Paper_Space0
340
26
  0
ENDTAB
  0
ENDSEC
  0
SECTION
  2
BLOCKS
  0
BLOCK
  5
20
100
AcDbEntity
  8
0
100
AcDbBlockBegin
  2
*Model_Space
 70
0
 10
0.0
 20
0.0
 30
0.0
  3
*Model_Space
  1

  0
ENDBLK
  5
21
100
AcDbEntity
  8
0
100
AcDbBlockEnd
  0
BLOCK
  5
1C
100
AcDbEntity
 67
1
  8
0
100
AcDbBlockBegin
  2
*Paper_Space
 70
0
 10
0.0
 20
0.0
 30
0.0
  3
*Paper_Space
  1

  0
ENDBLK
  5
1D
100
AcDbEntity
 67
1
  8
0
100
AcDbBlockEnd
  0
BLOCK
  5
24
100
AcDbEntity
  8
0
100
AcDbBlockBegin
  2
*Paper_Space0
 70
0
 10
0.0
 20
0.0
 30
0.0
  3
*Paper_Space0
  1

  0
ENDBLK
  5
25
100
AcDbEntity
  8
0
100
AcDbBlockEnd
  0
ENDSEC
  0
SECTION
  2
ENTITIES
  0
LINE
  5
5A
100
AcDbEntity
100
AcDbLine
  8
0
 62
256
370
-1
 48
1.0
  6
BYLAYER
 10
12.2461435915589405
 20
83.0400011934726336
 30
0.0
 11
129.5509755445776818
 21
83.0036979572782769
 31
0.0
  0
ARC
  5
5B
100
AcDbEntity
  8
0
 62
256
370
-1
 48
1.0
  6
BYLAYER
100
AcDbCircle
 10
12.2499346937040414
 20
12.2899999998259233
 30
0.0
 40
12.25
100
AcDbArc
 50
180.1870885912849758
 51
270.0003054510313518
  0
LINE
  5
5C
100
AcDbEntity
100
AcDbLine
  8
0
 62
256
370
-1
 48
1.0
  6
BYLAYER
 10
0.0
 20
95.2499999999991473
 30
0.0
 11
0.0
 21
153.75
 31
0.0
  0
LINE
  5
5D
100
AcDbEntity
100
AcDbLine
  8
0
 62
256
370
-1
 48
1.0
  6
BYLAYER
 10
12.25
 20
0.0400000000000027
 30
0.0
 11
129.25
 21
0.003791102514507
 31
0.0
  0
LINE
  5
5E
100
AcDbEntity
100
AcDbLine
  8
0
 62
256
370
-1
 48
1.0
  6
BYLAYER
 10
12.25
 20
166.0
 30
0.0
 11
129.25
 21
166.0
 31
0.0
  0
LINE
  5
5F
100
AcDbEntity
100
AcDbLine
  8
0
 62
256
370
-1
 48
1.0
  6
BYLAYER
 10
0.0
 20
12.2499999999995275
 30
0.0
 11
-0.0
 21
70.75
 31
0.0
  0
LINE
  5
60
100
AcDbEntity
100
AcDbLine
  8
0
 62
256
370
-1
 48
1.0
  6
BYLAYER
 10
141.5
 20
153.75
 30
0.0
 11
141.5
 21
95.25
 31
0.0
  0
LINE
  5
61
100
AcDbEntity
100
AcDbLine
  8
0
 62
256
370
-1
 48
1.0
  6
BYLAYER
 10
12.25
 20
82.9999999999999858
 30
0.0
 11
129.25
 21
83.0
 31
0.0
  0
LINE
  5
62
100
AcDbEntity
100
AcDbLine
  8
0
 62
256
370
-1
 48
1.0
  6
BYLAYER
 10
141.5000000000000853
 20
70.75
 30
0.0
 11
141.5000000000000853
 21
12.25
 31
0.0
  0
LINE
  5
63
100
AcDbEntity
100
AcDbLine
  8
0
 62
256
370
-1
 48
1.0
  6
BYLAYER
 10
90.25
 20
83.0
 30
0.0
 11
90.25
 21
83.0
 31
0.0
  0
LINE
  5
64
100
AcDbEntity
100
AcDbLine
  8
0
 62
256
370
-1
 48
1.0
  6
BYLAYER
 10
90.25
 20
0.0
 30
0.0
 11
90.25
 21
0.0
 31
0.0
  0
ARC
  5
65
100
AcDbEntity
  8
0
 62
256
370
-1
 48
1.0
  6
BYLAYER
100
AcDbCircle
 10
12.2499346937040414
 20
95.2899999998259233
 30
0.0
 40
12.25
100
AcDbArc
 50
180.1870885912849758
 51
270.0003054510313518
  0
ARC
  5
66
100
AcDbEntity
  8
0
 62
256
370
-1
 48
1.0
  6
BYLAYER
100
AcDbCircle
 10
12.25
 20
153.75
 30
0.0
 40
12.25
100
AcDbArc
 50
90.0
 51
180.0
  0
LINE
  5
67
100
AcDbEntity
100
AcDbLine
  8
0
 62
256
370
-1
 48
1.0
  6
BYLAYER
 10
129.2499999999999432
 20
64.1682069312382737
 30
0.0
 11
134.9499999999999886
 21
67.4591034656191368
 31
0.0
  0
ARC
  5
68
100
AcDbEntity
  8
0
 62
256
370
-1
 48
1.0
  6
BYLAYER
100
AcDbCircle
 10
129.25
 20
153.75
 30
0.0
 40
12.25
100
AcDbArc
 50
0.0
 51
90.0
  0
LINE
  5
69
100
AcDbEntity
100
AcDbLine
  8
0
 62
256
370
-1
 48
1.0
  6
BYLAYER
 10
109.7499999999999574
 20
64.1682069312382737
 30
0.0
 11
115.4499999999999744
 21
67.4591034656191368
 31
0.0
  0
ARC
  5
6A
100
AcDbEntity
  8
0
 62
256
370
-1
 48
1.0
  6
BYLAYER
100
AcDbCircle
 10
129.25
 20
95.25
 30
0.0
 40
12.25
100
AcDbArc
 50
270.0
 51
0.0
  0
LINE
  5
6B
100
AcDbEntity
100
AcDbLine
  8
0
 62
256
370
-1
 48
1.0
  6
BYLAYER
 10
90.2499999999999716
 20
64.1682069312382737
 30
0.0
 11
95.9499999999999886
 21
67.4591034656191368
 31
0.0
  0
LINE
  5
6C
100
AcDbEntity
100
AcDbLine
  8
0
 62
256
370
-1
 48
1.0
  6
BYLAYER
 10
31.7500000000000142
 20
146.8217967697245001
 30
0.0
 11
37.7500000000000142
 21
150.2858983848622643
 31
0.0
  0
LINE
  5
6D
100
AcDbEntity
100
AcDbLine
  8
0
 62
256
370
-1
 48
1.0
  6
BYLAYER
 10
70.7499999999999716
 20
64.1682069312382737
 30
0.0
 11
76.4499999999999886
 21
67.4591034656191368
 31
0.0
  0
LINE
  5
6E
100
AcDbEntity
100
AcDbLine
  8
0
 62
256
370
-1
 48
1.0
  6
BYLAYER
 10
51.2500000000000142
 20
146.8217967697245001
 30
0.0
 11
57.2500000000000142
 21
150.2858983848622643
 31
0.0
  0
LINE
  5
6F
100
AcDbEntity
100
AcDbLine
  8
0
 62
256
370
-1
 48
1.0
  6
BYLAYER
 10
51.2499999999999929
 20
64.1682069312382737
 30
0.0
 11
56.9499999999999957
 21
67.4591034656191368
 31
0.0
  0
LINE
  5
70
100
AcDbEntity
100
AcDbLine
  8
0
 62
256
370
-1
 48
1.0
  6
BYLAYER
 10
70.75
 20
146.8217967697245001
 30
0.0
 11
76.75
 21
150.2858983848622643
 31
0.0
  0
LINE
  5
71
100
AcDbEntity
100
AcDbLine
  8
0
 62
256
370
-1
 48
1.0
  6
BYLAYER
 10
129.2499999999999716
 20
44.6682069312382595
 30
0.0
 11
134.9499999999999886
 21
47.9591034656191155
 31
0.0
  0
LINE
  5
72
100
AcDbEntity
100
AcDbLine
  8
0
 62
256
370
-1
 48
1.0
  6
BYLAYER
 10
90.2500000000000284
 20
146.8217967697245001
 30
0.0
 11
96.2500000000000284
 21
150.2858983848622643
 31
0.0
  0
LINE
  5
73
100
AcDbEntity
100
AcDbLine
  8
0
 62
256
370
-1
 48
1.0
  6
BYLAYER
 10
109.75
 20
44.6682069312382666
 30
0.0
 11
115.4500000000000028
 21
47.9591034656191226
 31
0.0
  0
LINE
  5
74
100
AcDbEntity
100
AcDbLine
  8
0
 62
256
370
-1
 48
1.0
  6
BYLAYER
 10
109.7500000000000284
 20
146.8217967697245001
 30
0.0
 11
115.7500000000000284
 21
150.2858983848622643
 31
0.0
  0
LINE
  5
75
100
AcDbEntity
100
AcDbLine
  8
0
 62
256
370
-1
 48
1.0
  6
BYLAYER
 10
90.25
 20
44.6682069312382737
 30
0.0
 11
95.9500000000000028
 21
47.9591034656191297
 31
0.0
  0
LINE
  5
76
100
AcDbEntity
100
AcDbLine
  8
0
 62
256
370
-1
 48
1.0
  6
BYLAYER
 10
129.2500000000000284
 20
146.8217967697245001
 30
0.0
 11
135.2500000000000284
 21
150.2858983848622643
 31
0.0
  0
LINE
  5
77
100
AcDbEntity
100
AcDbLine
  8
0
 62
256
370
-1
 48
1.0
  6
BYLAYER
 10
70.75
 20
44.6682069312382666
 30
0.0
 11
76.4500000000000028
 21
47.9591034656191226
 31
0.0
  0
LINE
  5
78
100
AcDbEntity
100
AcDbLine
  8
0
 62
256
370
-1
 48
1.0
  6
BYLAYER
 10
129.2500000000000284
 20
127.3217967697245001
 30
0.0
 11
135.2500000000000284
 21
130.7858983848622643
 31
0.0
  0
LINE
  5
79
100
AcDbEntity
100
AcDbLine
  8
0
 62
256
370
-1
 48
1.0
  6
BYLAYER
 10
51.2499999999999929
 20
44.6682069312382666
 30
0.0
 11
56.9499999999999957
 21
47.9591034656191226
 31
0.0
  0
LINE
  5
7A
100
AcDbEntity
100
AcDbLine
  8
0
 62
256
370
-1
 48
1.0
  6
BYLAYER
 10
109.7500000000000142
 20
127.3217967697245001
 30
0.0
 11
115.7500000000000142
 21
130.7858983848622643
 31
0.0
  0
LINE
  5
7B
100
AcDbEntity
100
AcDbLine
  8
0
 62
256
370
-1
 48
1.0
  6
BYLAYER
 10
129.25
 20
25.1682069312382666
 30
0.0
 11
134.9499999999999886
 21
28.4591034656191262
 31
0.0
  0
LINE
  5
7C
100
AcDbEntity
100
AcDbLine
  8
0
 62
256
370
-1
 48
1.0
  6
BYLAYER
 10
90.25
 20
127.3217967697245001
 30
0.0
 11
96.25
 21
130.7858983848622643
 31
0.0
  0
LINE
  5
7D
100
AcDbEntity
100
AcDbLine
  8
0
 62
256
370
-1
 48
1.0
  6
BYLAYER
 10
109.7499999999999858
 20
25.1682069312382666
 30
0.0
 11
115.4499999999999886
 21
28.4591034656191262
 31
0.0
  0
LINE
  5
7E
100
AcDbEntity
100
AcDbLine
  8
0
 62
256
370
-1
 48
1.0
  6
BYLAYER
 10
70.75
 20
127.3217967697245001
 30
0.0
 11
76.75
 21
130.7858983848622643
 31
0.0
  0
LINE
  5
7F
100
AcDbEntity
100
AcDbLine
  8
0
 62
256
370
-1
 48
1.0
  6
BYLAYER
 10
90.2499999999999858
 20
25.1682069312382666
 30
0.0
 11
95.9499999999999886
 21
28.4591034656191262
 31
0.0
  0
LINE
  5
80
100
AcDbEntity
100
AcDbLine
  8
0
 62
256
370
-1
 48
1.0
  6
BYLAYER
 10
51.25
 20
127.3217967697245001
 30
0.0
 11
57.25
 21
130.7858983848622643
 31
0.0
  0
LINE
  5
81
100
AcDbEntity
100
AcDbLine
  8
0
 62
256
370
-1
 48
1.0
  6
BYLAYER
 10
70.75
 20
25.1682069312382666
 30
0.0
 11
76.4500000000000028
 21
28.4591034656191262
 31
0.0
  0
LINE
  5
82
100
AcDbEntity
100
AcDbLine
  8
0
 62
256
370
-1
 48
1.0
  6
BYLAYER
 10
31.75
 20
127.3217967697245001
 30
0.0
 11
37.75
 21
130.7858983848622643
 31
0.0
  0
LINE
  5
83
100
AcDbEntity
100
AcDbLine
  8
0
 62
256
370
-1
 48
1.0
  6
BYLAYER
 10
51.2499999999999929
 20
25.1682069312382666
 30
0.0
 11
56.9499999999999957
 21
28.4591034656191262
 31
0.0
  0
LINE
  5
84
100
AcDbEntity
100
AcDbLine
  8
0
 62
256
370
-1
 48
1.0
  6
BYLAYER
 10
12.25
 20
127.3217967697245001
 30
0.0
 11
18.25
 21
130.7858983848622643
 31
0.0
  0
LINE
  5
85
100
AcDbEntity
100
AcDbLine
  8
0
 62
256
370
-1
 48
1.0
  6
BYLAYER
 10
31.7499999999999929
 20
64.1682069312382737
 30
0.0
 11
37.4499999999999957
 21
67.4591034656191368
 31
0.0
  0
LINE
  5
86
100
AcDbEntity
100
AcDbLine
  8
0
 62
256
370
-1
 48
1.0
  6
BYLAYER
 10
12.25
 20
107.8217967697244859
 30
0.0
 11
18.25
 21
111.2858983848622358
 31
0.0
  0
LINE
  5
87
100
AcDbEntity
100
AcDbLine
  8
0
 62
256
370
-1
 48
1.0
  6
BYLAYER
 10
31.7499999999999929
 20
44.6682069312382737
 30
0.0
 11
37.4499999999999957
 21
47.9591034656191297
 31
0.0
  0
LINE
  5
88
100
AcDbEntity
100
AcDbLine
  8
0
 62
256
370
-1
 48
1.0
  6
BYLAYER
 10
31.75
 20
107.8217967697244859
 30
0.0
 11
37.75
 21
111.2858983848622358
 31
0.0
  0
LINE
  5
89
100
AcDbEntity
100
AcDbLine
  8
0
 62
256
370
-1
 48
1.0
  6
BYLAYER
 10
31.7499999999999929
 20
25.1682069312382666
 30
0.0
 11
37.4499999999999957
 21
28.4591034656191262
 31
0.0
  0
LINE
  5
8A
100
AcDbEntity
100
AcDbLine
  8
0
 62
256
370
-1
 48
1.0
  6
BYLAYER
 10
51.25
 20
107.8217967697244859
 30
0.0
 11
57.25
 21
111.2858983848622358
 31
0.0
  0
LINE
  5
8B
100
AcDbEntity
100
AcDbLine
  8
0
 62
256
370
-1
 48
1.0
  6
BYLAYER
 10
129.2499999999999432
 20
5.6682069312382666
 30
0.0
 11
134.9499999999999886
 21
8.9591034656191262
 31
0.0
  0
LINE
  5
8C
100
AcDbEntity
100
AcDbLine
  8
0
 62
256
370
-1
 48
1.0
  6
BYLAYER
 10
70.75
 20
107.8217967697244859
 30
0.0
 11
76.75
 21
111.2858983848622358
 31
0.0
  0
LINE
  5
8D
100
AcDbEntity
100
AcDbLine
  8
0
 62
256
370
-1
 48
1.0
  6
BYLAYER
 10
109.7499999999999574
 20
5.6682069312382666
 30
0.0
 11
115.4499999999999744
 21
8.9591034656191262
 31
0.0
  0
LINE
  5
8E
100
AcDbEntity
100
AcDbLine
  8
0
 62
256
370
-1
 48
1.0
  6
BYLAYER
 10
90.25
 20
107.8217967697244859
 30
0.0
 11
96.25
 21
111.2858983848622358
 31
0.0
  0
LINE
  5
8F
100
AcDbEntity
100
AcDbLine
  8
0
 62
256
370
-1
 48
1.0
  6
BYLAYER
 10
90.2499999999999716
 20
5.6682069312382666
 30
0.0
 11
95.9499999999999886
 21
8.9591034656191262
 31
0.0
  0
LINE
  5
90
100
AcDbEntity
100
AcDbLine
  8
0
 62
256
370
-1
 48
1.0
  6
BYLAYER
 10
109.75
 20
107.8217967697244859
 30
0.0
 11
115.75
 21
111.2858983848622358
 31
0.0
  0
LINE
  5
91
100
AcDbEntity
100
AcDbLine
  8
0
 62
256
370
-1
 48
1.0
  6
BYLAYER
 10
70.7499999999999716
 20
5.6682069312382666
 30
0.0
 11
76.4499999999999886
 21
8.9591034656191262
 31
0.0
  0
LINE
  5
92
100
AcDbEntity
100
AcDbLine
  8
0
 62
256
370
-1
 48
1.0
  6
BYLAYER
 10
129.25
 20
107.8217967697244859
 30
0.0
 11
135.25
 21
111.2858983848622358
 31
0.0
  0
LINE
  5
93
100
AcDbEntity
100
AcDbLine
  8
0
 62
256
370
-1
 48
1.0
  6
BYLAYER
 10
51.2499999999999787
 20
5.6682069312382666
 30
0.0
 11
56.9499999999999815
 21
8.9591034656191262
 31
0.0
  0
LINE
  5
94
100
AcDbEntity
100
AcDbLine
  8
0
 62
256
370
-1
 48
1.0
  6
BYLAYER
 10
129.25
 20
88.3217967697244859
 30
0.0
 11
135.25
 21
91.7858983848622358
 31
0.0
  0
LINE
  5
95
100
AcDbEntity
100
AcDbLine
  8
0
 62
256
370
-1
 48
1.0
  6
BYLAYER
 10
12.2499999999999929
 20
64.1682069312382737
 30
0.0
 11
17.9499999999999957
 21
67.4591034656191368
 31
0.0
  0
LINE
  5
96
100
AcDbEntity
100
AcDbLine
  8
0
 62
256
370
-1
 48
1.0
  6
BYLAYER
 10
109.75
 20
88.3217967697244859
 30
0.0
 11
115.75
 21
91.7858983848622358
 31
0.0
  0
LINE
  5
97
100
AcDbEntity
100
AcDbLine
  8
0
 62
256
370
-1
 48
1.0
  6
BYLAYER
 10
12.2499999999999929
 20
44.6682069312382737
 30
0.0
 11
17.9499999999999957
 21
47.9591034656191297
 31
0.0
  0
LINE
  5
98
100
AcDbEntity
100
AcDbLine
  8
0
 62
256
370
-1
 48
1.0
  6
BYLAYER
 10
90.25
 20
88.3217967697244859
 30
0.0
 11
96.25
 21
91.7858983848622358
 31
0.0
  0
LINE
  5
99
100
AcDbEntity
100
AcDbLine
  8
0
 62
256
370
-1
 48
1.0
  6
BYLAYER
 10
12.2499999999999929
 20
25.1682069312382666
 30
0.0
 11
17.9499999999999957
 21
28.4591034656191262
 31
0.0
  0
LINE
  5
9A
100
AcDbEntity
100
AcDbLine
  8
0
 62
256
370
-1
 48
1.0
  6
BYLAYER
 10
70.75
 20
88.3217967697244859
 30
0.0
 11
76.75
 21
91.7858983848622358
 31
0.0
  0
LINE
  5
9B
100
AcDbEntity
100
AcDbLine
  8
0
 62
256
370
-1
 48
1.0
  6
BYLAYER
 10
31.7499999999999929
 20
5.6682069312382666
 30
0.0
 11
37.4499999999999957
 21
8.9591034656191262
 31
0.0
  0
LINE
  5
9C
100
AcDbEntity
100
AcDbLine
  8
0
 62
256
370
-1
 48
1.0
  6
BYLAYER
 10
51.25
 20
88.3217967697244859
 30
0.0
 11
57.25
 21
91.7858983848622358
 31
0.0
  0
LINE
  5
9D
100
AcDbEntity
100
AcDbLine
  8
0
 62
256
370
-1
 48
1.0
  6
BYLAYER
 10
12.2499999999999929
 20
5.6682069312382666
 30
0.0
 11
17.9499999999999957
 21
8.9591034656191262
 31
0.0
  0
LINE
  5
9E
100
AcDbEntity
100
AcDbLine
  8
0
 62
256
370
-1
 48
1.0
  6
BYLAYER
 10
31.75
 20
88.3217967697244859
 30
0.0
 11
37.75
 21
91.7858983848622358
 31
0.0
  0
LINE
  5
9F
100
AcDbEntity
100
AcDbLine
  8
0
 62
256
370
-1
 48
1.0
  6
BYLAYER
 10
134.9499999999999886
 20
67.4591034656191368
 30
0.0
 11
134.9499999999999886
 21
74.0408965343808632
 31
0.0
  0
LINE
  5
A0
100
AcDbEntity
100
AcDbLine
  8
0
 62
256
370
-1
 48
1.0
  6
BYLAYER
 10
12.2499999999999982
 20
88.3217967697244859
 30
0.0
 11
18.25
 21
91.7858983848622358
 31
0.0
  0
LINE
  5
A1
100
AcDbEntity
100
AcDbLine
  8
0
 62
256
370
-1
 48
1.0
  6
BYLAYER
 10
115.4499999999999744
 20
67.4591034656191368
 30
0.0
 11
115.4499999999999744
 21
74.0408965343808632
 31
0.0
  0
LINE
  5
A2
100
AcDbEntity
100
AcDbLine
  8
0
 62
256
370
-1
 48
1.0
  6
BYLAYER
 10
12.2500000000000142
 20
146.8217967697245001
 30
0.0
 11
18.2500000000000142
 21
150.2858983848622643
 31
0.0
  0
LINE
  5
A3
100
AcDbEntity
100
AcDbLine
  8
0
 62
256
370
-1
 48
1.0
  6
BYLAYER
 10
95.9499999999999886
 20
67.4591034656191368
 30
0.0
 11
95.9499999999999886
 21
74.0408965343808632
 31
0.0
  0
LINE
  5
A4
100
AcDbEntity
100
AcDbLine
  8
0
 62
256
370
-1
 48
1.0
  6
BYLAYER
 10
37.7500000000000142
 20
150.2858983848622643
 30
0.0
 11
37.7500000000000142
 21
157.2141016151377642
 31
0.0
  0
LINE
  5
A5
100
AcDbEntity
100
AcDbLine
  8
0
 62
256
370
-1
 48
1.0
  6
BYLAYER
 10
76.4499999999999886
 20
67.4591034656191368
 30
0.0
 11
76.4499999999999886
 21
74.0408965343808632
 31
0.0
  0
LINE
  5
A6
100
AcDbEntity
100
AcDbLine
  8
0
 62
256
370
-1
 48
1.0
  6
BYLAYER
 10
57.2500000000000142
 20
150.2858983848622643
 30
0.0
 11
57.2500000000000142
 21
157.2141016151377642
 31
0.0
  0
LINE
  5
A7
100
AcDbEntity
100
AcDbLine
  8
0
 62
256
370
-1
 48
1.0
  6
BYLAYER
 10
56.9499999999999957
 20
67.4591034656191368
 30
0.0
 11
56.9500000000000028
 21
74.0408965343808632
 31
0.0
  0
LINE
  5
A8
100
AcDbEntity
100
AcDbLine
  8
0
 62
256
370
-1
 48
1.0
  6
BYLAYER
 10
76.75
 20
150.2858983848622643
 30
0.0
 11
76.75
 21
157.2141016151377642
 31
0.0
  0
LINE
  5
A9
100
AcDbEntity
100
AcDbLine
  8
0
 62
256
370
-1
 48
1.0
  6
BYLAYER
 10
134.9499999999999886
 20
47.9591034656191155
 30
0.0
 11
134.9499999999999886
 21
54.5408965343808489
 31
0.0
  0
LINE
  5
AA
100
AcDbEntity
100
AcDbLine
  8
0
 62
256
370
-1
 48
1.0
  6
BYLAYER
 10
96.2500000000000284
 20
150.2858983848622643
 30
0.0
 11
96.2500000000000284
 21
157.2141016151377642
 31
0.0
  0
LINE
  5
AB
100
AcDbEntity
100
AcDbLine
  8
0
 62
256
370
-1
 48
1.0
  6
BYLAYER
 10
115.4500000000000028
 20
47.9591034656191226
 30
0.0
 11
115.4500000000000171
 21
54.5408965343808561
 31
0.0
  0
LINE
  5
AC
100
AcDbEntity
100
AcDbLine
  8
0
 62
256
370
-1
 48
1.0
  6
BYLAYER
 10
115.7500000000000284
 20
150.2858983848622643
 30
0.0
 11
115.7500000000000284
 21
157.2141016151377642
 31
0.0
  0
LINE
  5
AD
100
AcDbEntity
100
AcDbLine
  8
0
 62
256
370
-1
 48
1.0
  6
BYLAYER
 10
95.9500000000000028
 20
47.9591034656191297
 30
0.0
 11
95.9500000000000171
 21
54.5408965343808632
 31
0.0
  0
LINE
  5
AE
100
AcDbEntity
100
AcDbLine
  8
0
 62
256
370
-1
 48
1.0
  6
BYLAYER
 10
135.2500000000000284
 20
150.2858983848622643
 30
0.0
 11
135.2500000000000284
 21
157.2141016151377642
 31
0.0
  0
LINE
  5
AF
100
AcDbEntity
100
AcDbLine
  8
0
 62
256
370
-1
 48
1.0
  6
BYLAYER
 10
76.4500000000000028
 20
47.9591034656191226
 30
0.0
 11
76.4500000000000171
 21
54.5408965343808561
 31
0.0
  0
LINE
  5
B0
100
AcDbEntity
100
AcDbLine
  8
0
 62
256
370
-1
 48
1.0
  6
BYLAYER
 10
135.2500000000000284
 20
130.7858983848622643
 30
0.0
 11
135.2500000000000284
 21
137.7141016151377642
 31
0.0
  0
LINE
  5
B1
100
AcDbEntity
100
AcDbLine
  8
0
 62
256
370
-1
 48
1.0
  6
BYLAYER
 10
56.9499999999999957
 20
47.9591034656191226
 30
0.0
 11
56.9500000000000028
 21
54.5408965343808561
 31
0.0
  0
LINE
  5
B2
100
AcDbEntity
100
AcDbLine
  8
0
 62
256
370
-1
 48
1.0
  6
BYLAYER
 10
115.7500000000000142
 20
130.7858983848622643
 30
0.0
 11
115.7500000000000142
 21
137.7141016151377642
 31
0.0
  0
LINE
  5
B3
100
AcDbEntity
100
AcDbLine
  8
0
 62
256
370
-1
 48
1.0
  6
BYLAYER
 10
134.9499999999999886
 20
28.4591034656191262
 30
0.0
 11
134.9499999999999886
 21
35.0408965343808632
 31
0.0
  0
LINE
  5
B4
100
AcDbEntity
100
AcDbLine
  8
0
 62
256
370
-1
 48
1.0
  6
BYLAYER
 10
96.25
 20
130.7858983848622643
 30
0.0
 11
96.25
 21
137.7141016151377642
 31
0.0
  0
LINE
  5
B5
100
AcDbEntity
100
AcDbLine
  8
0
 62
256
370
-1
 48
1.0
  6
BYLAYER
 10
115.4499999999999886
 20
28.4591034656191262
 30
0.0
 11
115.4500000000000028
 21
35.0408965343808632
 31
0.0
  0
LINE
  5
B6
100
AcDbEntity
100
AcDbLine
  8
0
 62
256
370
-1
 48
1.0
  6
BYLAYER
 10
76.75
 20
130.7858983848622643
 30
0.0
 11
76.75
 21
137.7141016151377357
 31
0.0
  0
LINE
  5
B7
100
AcDbEntity
100
AcDbLine
  8
0
 62
256
370
-1
 48
1.0
  6
BYLAYER
 10
95.9499999999999886
 20
28.4591034656191262
 30
0.0
 11
95.9500000000000028
 21
35.0408965343808632
 31
0.0
  0
LINE
  5
B8
100
AcDbEntity
100
AcDbLine
  8
0
 62
256
370
-1
 48
1.0
  6
BYLAYER
 10
57.25
 20
130.7858983848622643
 30
0.0
 11
57.25
 21
137.7141016151377357
 31
0.0
  0
LINE
  5
B9
100
AcDbEntity
100
AcDbLine
  8
0
 62
256
370
-1
 48
1.0
  6
BYLAYER
 10
76.4500000000000028
 20
28.4591034656191262
 30
0.0
 11
76.4500000000000171
 21
35.0408965343808632
 31
0.0
  0
LINE
  5
BA
100
AcDbEntity
100
AcDbLine
  8
0
 62
256
370
-1
 48
1.0
  6
BYLAYER
 10
37.75
 20
130.7858983848622643
 30
0.0
 11
37.75
 21
137.7141016151377357
 31
0.0
  0
LINE
  5
BB
100
AcDbEntity
100
AcDbLine
  8
0
 62
256
370
-1
 48
1.0
  6
BYLAYER
 10
56.9499999999999957
 20
28.4591034656191262
 30
0.0
 11
56.9500000000000028
 21
35.0408965343808632
 31
0.0
  0
LINE
  5
BC
100
AcDbEntity
100
AcDbLine
  8
0
 62
256
370
-1
 48
1.0
  6
BYLAYER
 10
18.25
 20
130.7858983848622643
 30
0.0
 11
18.25
 21
137.7141016151377357
 31
0.0
  0
LINE
  5
BD
100
AcDbEntity
100
AcDbLine
  8
0
 62
256
370
-1
 48
1.0
  6
BYLAYER
 10
37.4499999999999957
 20
67.4591034656191368
 30
0.0
 11
37.4500000000000028
 21
74.0408965343808632
 31
0.0
  0
LINE
  5
BE
100
AcDbEntity
100
AcDbLine
  8
0
 62
256
370
-1
 48
1.0
  6
BYLAYER
 10
18.25
 20
111.2858983848622358
 30
0.0
 11
18.25
 21
118.2141016151377499
 31
0.0
  0
LINE
  5
BF
100
AcDbEntity
100
AcDbLine
  8
0
 62
256
370
-1
 48
1.0
  6
BYLAYER
 10
37.4499999999999957
 20
47.9591034656191297
 30
0.0
 11
37.4500000000000028
 21
54.5408965343808632
 31
0.0
  0
LINE
  5
C0
100
AcDbEntity
100
AcDbLine
  8
0
 62
256
370
-1
 48
1.0
  6
BYLAYER
 10
37.75
 20
111.2858983848622358
 30
0.0
 11
37.75
 21
118.2141016151377499
 31
0.0
  0
LINE
  5
C1
100
AcDbEntity
100
AcDbLine
  8
0
 62
256
370
-1
 48
1.0
  6
BYLAYER
 10
37.4499999999999957
 20
28.4591034656191262
 30
0.0
 11
37.4500000000000028
 21
35.0408965343808632
 31
0.0
  0
LINE
  5
C2
100
AcDbEntity
100
AcDbLine
  8
0
 62
256
370
-1
 48
1.0
  6
BYLAYER
 10
57.25
 20
111.2858983848622358
 30
0.0
 11
57.25
 21
118.2141016151377499
 31
0.0
  0
LINE
  5
C3
100
AcDbEntity
100
AcDbLine
  8
0
 62
256
370
-1
 48
1.0
  6
BYLAYER
 10
134.9499999999999886
 20
8.9591034656191262
 30
0.0
 11
134.9499999999999886
 21
15.5408965343808614
 31
0.0
  0
LINE
  5
C4
100
AcDbEntity
100
AcDbLine
  8
0
 62
256
370
-1
 48
1.0
  6
BYLAYER
 10
76.75
 20
111.2858983848622358
 30
0.0
 11
76.75
 21
118.2141016151377499
 31
0.0
  0
LINE
  5
C5
100
AcDbEntity
100
AcDbLine
  8
0
 62
256
370
-1
 48
1.0
  6
BYLAYER
 10
115.4499999999999744
 20
8.9591034656191262
 30
0.0
 11
115.4499999999999744
 21
15.5408965343808614
 31
0.0
  0
LINE
  5
C6
100
AcDbEntity
100
AcDbLine
  8
0
 62
256
370
-1
 48
1.0
  6
BYLAYER
 10
96.25
 20
111.2858983848622358
 30
0.0
 11
96.25
 21
118.2141016151377499
 31
0.0
  0
LINE
  5
C7
100
AcDbEntity
100
AcDbLine
  8
0
 62
256
370
-1
 48
1.0
  6
BYLAYER
 10
95.9499999999999886
 20
8.9591034656191262
 30
0.0
 11
95.9499999999999886
 21
15.5408965343808614
 31
0.0
  0
LINE
  5
C8
100
AcDbEntity
100
AcDbLine
  8
0
 62
256
370
-1
 48
1.0
  6
BYLAYER
 10
115.75
 20
111.2858983848622358
 30
0.0
 11
115.75
 21
118.2141016151377499
 31
0.0
  0
LINE
  5
C9
100
AcDbEntity
100
AcDbLine
  8
0
 62
256
370
-1
 48
1.0
  6
BYLAYER
 10
76.4499999999999886
 20
8.9591034656191262
 30
0.0
 11
76.4499999999999886
 21
15.5408965343808614
 31
0.0
  0
LINE
  5
CA
100
AcDbEntity
100
AcDbLine
  8
0
 62
256
370
-1
 48
1.0
  6
BYLAYER
 10
135.25
 20
111.2858983848622358
 30
0.0
 11
135.25
 21
118.2141016151377499
 31
0.0
  0
LINE
  5
CB
100
AcDbEntity
100
AcDbLine
  8
0
 62
256
370
-1
 48
1.0
  6
BYLAYER
 10
56.9499999999999815
 20
8.9591034656191262
 30
0.0
 11
56.9499999999999886
 21
15.5408965343808614
 31
0.0
  0
LINE
  5
CC
100
AcDbEntity
100
AcDbLine
  8
0
 62
256
370
-1
 48
1.0
  6
BYLAYER
 10
135.25
 20
91.7858983848622358
 30
0.0
 11
135.25
 21
98.7141016151377499
 31
0.0
  0
LINE
  5
CD
100
AcDbEntity
100
AcDbLine
  8
0
 62
256
370
-1
 48
1.0
  6
BYLAYER
 10
17.9499999999999957
 20
67.4591034656191368
 30
0.0
 11
17.9500000000000028
 21
74.0408965343808632
 31
0.0
  0
LINE
  5
CE
100
AcDbEntity
100
AcDbLine
  8
0
 62
256
370
-1
 48
1.0
  6
BYLAYER
 10
115.75
 20
91.7858983848622358
 30
0.0
 11
115.75
 21
98.7141016151377499
 31
0.0
  0
LINE
  5
CF
100
AcDbEntity
100
AcDbLine
  8
0
 62
256
370
-1
 48
1.0
  6
BYLAYER
 10
17.9499999999999957
 20
47.9591034656191297
 30
0.0
 11
17.9500000000000028
 21
54.5408965343808632
 31
0.0
  0
LINE
  5
D0
100
AcDbEntity
100
AcDbLine
  8
0
 62
256
370
-1
 48
1.0
  6
BYLAYER
 10
96.25
 20
91.7858983848622358
 30
0.0
 11
96.25
 21
98.7141016151377499
 31
0.0
  0
LINE
  5
D1
100
AcDbEntity
100
AcDbLine
  8
0
 62
256
370
-1
 48
1.0
  6
BYLAYER
 10
17.9499999999999957
 20
28.4591034656191262
 30
0.0
 11
17.9500000000000028
 21
35.0408965343808632
 31
0.0
  0
LINE
  5
D2
100
AcDbEntity
100
AcDbLine
  8
0
 62
256
370
-1
 48
1.0
  6
BYLAYER
 10
76.75
 20
91.7858983848622358
 30
0.0
 11
76.75
 21
98.7141016151377499
 31
0.0
  0
LINE
  5
D3
100
AcDbEntity
100
AcDbLine
  8
0
 62
256
370
-1
 48
1.0
  6
BYLAYER
 10
37.4499999999999957
 20
8.9591034656191262
 30
0.0
 11
37.4500000000000028
 21
15.5408965343808614
 31
0.0
  0
LINE
  5
D4
100
AcDbEntity
100
AcDbLine
  8
0
 62
256
370
-1
 48
1.0
  6
BYLAYER
 10
57.25
 20
91.7858983848622358
 30
0.0
 11
57.25
 21
98.7141016151377499
 31
0.0
  0
LINE
  5
D5
100
AcDbEntity
100
AcDbLine
  8
0
 62
256
370
-1
 48
1.0
  6
BYLAYER
 10
17.9499999999999957
 20
8.9591034656191262
 30
0.0
 11
17.9500000000000028
 21
15.5408965343808614
 31
0.0
  0
LINE
  5
D6
100
AcDbEntity
100
AcDbLine
  8
0
 62
256
370
-1
 48
1.0
  6
BYLAYER
 10
37.75
 20
91.7858983848622358
 30
0.0
 11
37.75
 21
98.7141016151377499
 31
0.0
  0
LINE
  5
D7
100
AcDbEntity
100
AcDbLine
  8
0
 62
256
370
-1
 48
1.0
  6
BYLAYER
 10
134.9499999999999886
 20
74.0408965343808632
 30
0.0
 11
129.25
 21
77.3317930687617405
 31
0.0
  0
LINE
  5
D8
100
AcDbEntity
100
AcDbLine
  8
0
 62
256
370
-1
 48
1.0
  6
BYLAYER
 10
18.25
 20
91.7858983848622358
 30
0.0
 11
18.2500000000000036
 21
98.7141016151377499
 31
0.0
  0
LINE
  5
D9
100
AcDbEntity
100
AcDbLine
  8
0
 62
256
370
-1
 48
1.0
  6
BYLAYER
 10
115.4499999999999744
 20
74.0408965343808632
 30
0.0
 11
109.7499999999999858
 21
77.3317930687617405
 31
0.0
  0
LINE
  5
DA
100
AcDbEntity
100
AcDbLine
  8
0
 62
256
370
-1
 48
1.0
  6
BYLAYER
 10
18.2500000000000142
 20
150.2858983848622643
 30
0.0
 11
18.2500000000000142
 21
157.2141016151377642
 31
0.0
  0
LINE
  5
DB
100
AcDbEntity
100
AcDbLine
  8
0
 62
256
370
-1
 48
1.0
  6
BYLAYER
 10
95.9499999999999886
 20
74.0408965343808632
 30
0.0
 11
90.25
 21
77.3317930687617405
 31
0.0
  0
LINE
  5
DC
100
AcDbEntity
100
AcDbLine
  8
0
 62
256
370
-1
 48
1.0
  6
BYLAYER
 10
37.7500000000000142
 20
157.2141016151377642
 30
0.0
 11
31.7500000000000142
 21
160.6782032302755283
 31
0.0
  0
LINE
  5
DD
100
AcDbEntity
100
AcDbLine
  8
0
 62
256
370
-1
 48
1.0
  6
BYLAYER
 10
76.4499999999999886
 20
74.0408965343808632
 30
0.0
 11
70.75
 21
77.3317930687617405
 31
0.0
  0
LINE
  5
DE
100
AcDbEntity
100
AcDbLine
  8
0
 62
256
370
-1
 48
1.0
  6
BYLAYER
 10
57.2500000000000142
 20
157.2141016151377642
 30
0.0
 11
51.2500000000000142
 21
160.6782032302755283
 31
0.0
  0
LINE
  5
DF
100
AcDbEntity
100
AcDbLine
  8
0
 62
256
370
-1
 48
1.0
  6
BYLAYER
 10
56.9500000000000028
 20
74.0408965343808632
 30
0.0
 11
51.2500000000000071
 21
77.3317930687617405
 31
0.0
  0
LINE
  5
E0
100
AcDbEntity
100
AcDbLine
  8
0
 62
256
370
-1
 48
1.0
  6
BYLAYER
 10
76.75
 20
157.2141016151377642
 30
0.0
 11
70.75
 21
160.6782032302755283
 31
0.0
  0
LINE
  5
E1
100
AcDbEntity
100
AcDbLine
  8
0
 62
256
370
-1
 48
1.0
  6
BYLAYER
 10
134.9499999999999886
 20
54.5408965343808489
 30
0.0
 11
129.25
 21
57.8317930687617263
 31
0.0
  0
LINE
  5
E2
100
AcDbEntity
100
AcDbLine
  8
0
 62
256
370
-1
 48
1.0
  6
BYLAYER
 10
96.2500000000000284
 20
157.2141016151377642
 30
0.0
 11
90.2500000000000284
 21
160.6782032302755283
 31
0.0
  0
LINE
  5
E3
100
AcDbEntity
100
AcDbLine
  8
0
 62
256
370
-1
 48
1.0
  6
BYLAYER
 10
115.4500000000000171
 20
54.5408965343808561
 30
0.0
 11
109.7500000000000142
 21
57.8317930687617334
 31
0.0
  0
LINE
  5
E4
100
AcDbEntity
100
AcDbLine
  8
0
 62
256
370
-1
 48
1.0
  6
BYLAYER
 10
115.7500000000000284
 20
157.2141016151377642
 30
0.0
 11
109.7500000000000284
 21
160.6782032302755283
 31
0.0
  0
LINE
  5
E5
100
AcDbEntity
100
AcDbLine
  8
0
 62
256
370
-1
 48
1.0
  6
BYLAYER
 10
95.9500000000000171
 20
54.5408965343808632
 30
0.0
 11
90.2500000000000142
 21
57.8317930687617405
 31
0.0
  0
LINE
  5
E6
100
AcDbEntity
100
AcDbLine
  8
0
 62
256
370
-1
 48
1.0
  6
BYLAYER
 10
135.2500000000000284
 20
157.2141016151377642
 30
0.0
 11
129.2500000000000284
 21
160.6782032302755283
 31
0.0
  0
LINE
  5
E7
100
AcDbEntity
100
AcDbLine
  8
0
 62
256
370
-1
 48
1.0
  6
BYLAYER
 10
76.4500000000000171
 20
54.5408965343808561
 30
0.0
 11
70.7500000000000142
 21
57.8317930687617334
 31
0.0
  0
LINE
  5
E8
100
AcDbEntity
100
AcDbLine
  8
0
 62
256
370
-1
 48
1.0
  6
BYLAYER
 10
135.2500000000000284
 20
137.7141016151377642
 30
0.0
 11
129.2500000000000284
 21
141.1782032302755283
 31
0.0
  0
LINE
  5
E9
100
AcDbEntity
100
AcDbLine
  8
0
 62
256
370
-1
 48
1.0
  6
BYLAYER
 10
56.9500000000000028
 20
54.5408965343808561
 30
0.0
 11
51.2500000000000071
 21
57.8317930687617334
 31
0.0
  0
LINE
  5
EA
100
AcDbEntity
100
AcDbLine
  8
0
 62
256
370
-1
 48
1.0
  6
BYLAYER
 10
115.7500000000000142
 20
137.7141016151377642
 30
0.0
 11
109.7500000000000142
 21
141.1782032302755283
 31
0.0
  0
LINE
  5
EB
100
AcDbEntity
100
AcDbLine
  8
0
 62
256
370
-1
 48
1.0
  6
BYLAYER
 10
134.9499999999999886
 20
35.0408965343808632
 30
0.0
 11
129.25
 21
38.3317930687617334
 31
0.0
  0
LINE
  5
EC
100
AcDbEntity
100
AcDbLine
  8
0
 62
256
370
-1
 48
1.0
  6
BYLAYER
 10
96.25
 20
137.7141016151377642
 30
0.0
 11
90.25
 21
141.1782032302755283
 31
0.0
  0
LINE
  5
ED
100
AcDbEntity
100
AcDbLine
  8
0
 62
256
370
-1
 48
1.0
  6
BYLAYER
 10
115.4500000000000028
 20
35.0408965343808632
 30
0.0
 11
109.75
 21
38.3317930687617334
 31
0.0
  0
LINE
  5
EE
100
AcDbEntity
100
AcDbLine
  8
0
 62
256
370
-1
 48
1.0
  6
BYLAYER
 10
76.75
 20
137.7141016151377357
 30
0.0
 11
70.75
 21
141.1782032302755283
 31
0.0
  0
LINE
  5
EF
100
AcDbEntity
100
AcDbLine
  8
0
 62
256
370
-1
 48
1.0
  6
BYLAYER
 10
95.9500000000000028
 20
35.0408965343808632
 30
0.0
 11
90.25
 21
38.3317930687617334
 31
0.0
  0
LINE
  5
F0
100
AcDbEntity
100
AcDbLine
  8
0
 62
256
370
-1
 48
1.0
  6
BYLAYER
 10
57.25
 20
137.7141016151377357
 30
0.0
 11
51.25
 21
141.1782032302755283
 31
0.0
  0
LINE
  5
F1
100
AcDbEntity
100
AcDbLine
  8
0
 62
256
370
-1
 48
1.0
  6
BYLAYER
 10
76.4500000000000171
 20
35.0408965343808632
 30
0.0
 11
70.7500000000000142
 21
38.3317930687617334
 31
0.0
  0
LINE
  5
F2
100
AcDbEntity
100
AcDbLine
  8
0
 62
256
370
-1
 48
1.0
  6
BYLAYER
 10
37.75
 20
137.7141016151377357
 30
0.0
 11
31.75
 21
141.1782032302755283
 31
0.0
  0
LINE
  5
F3
100
AcDbEntity
100
AcDbLine
  8
0
 62
256
370
-1
 48
1.0
  6
BYLAYER
 10
56.9500000000000028
 20
35.0408965343808632
 30
0.0
 11
51.2500000000000071
 21
38.3317930687617334
 31
0.0
  0
LINE
  5
F4
100
AcDbEntity
100
AcDbLine
  8
0
 62
256
370
-1
 48
1.0
  6
BYLAYER
 10
18.25
 20
137.7141016151377357
 30
0.0
 11
12.25
 21
141.1782032302755283
 31
0.0
  0
LINE
  5
F5
100
AcDbEntity
100
AcDbLine
  8
0
 62
256
370
-1
 48
1.0
  6
BYLAYER
 10
37.4500000000000028
 20
74.0408965343808632
 30
0.0
 11
31.7500000000000071
 21
77.3317930687617405
 31
0.0
  0
LINE
  5
F6
100
AcDbEntity
100
AcDbLine
  8
0
 62
256
370
-1
 48
1.0
  6
BYLAYER
 10
18.25
 20
118.2141016151377499
 30
0.0
 11
12.25
 21
121.6782032302755141
 31
0.0
  0
LINE
  5
F7
100
AcDbEntity
100
AcDbLine
  8
0
 62
256
370
-1
 48
1.0
  6
BYLAYER
 10
37.4500000000000028
 20
54.5408965343808632
 30
0.0
 11
31.7500000000000071
 21
57.8317930687617405
 31
0.0
  0
LINE
  5
F8
100
AcDbEntity
100
AcDbLine
  8
0
 62
256
370
-1
 48
1.0
  6
BYLAYER
 10
37.75
 20
118.2141016151377499
 30
0.0
 11
31.75
 21
121.6782032302755141
 31
0.0
  0
LINE
  5
F9
100
AcDbEntity
100
AcDbLine
  8
0
 62
256
370
-1
 48
1.0
  6
BYLAYER
 10
37.4500000000000028
 20
35.0408965343808632
 30
0.0
 11
31.7500000000000071
 21
38.3317930687617334
 31
0.0
  0
LINE
  5
FA
100
AcDbEntity
100
AcDbLine
  8
0
 62
256
370
-1
 48
1.0
  6
BYLAYER
 10
57.25
 20
118.2141016151377499
 30
0.0
 11
51.25
 21
121.6782032302755141
 31
0.0
  0
LINE
  5
FB
100
AcDbEntity
100
AcDbLine
  8
0
 62
256
370
-1
 48
1.0
  6
BYLAYER
 10
134.9499999999999886
 20
15.5408965343808614
 30
0.0
 11
129.25
 21
18.8317930687617334
 31
0.0
  0
LINE
  5
FC
100
AcDbEntity
100
AcDbLine
  8
0
 62
256
370
-1
 48
1.0
  6
BYLAYER
 10
76.75
 20
118.2141016151377499
 30
0.0
 11
70.75
 21
121.6782032302755141
 31
0.0
  0
LINE
  5
FD
100
AcDbEntity
100
AcDbLine
  8
0
 62
256
370
-1
 48
1.0
  6
BYLAYER
 10
115.4499999999999744
 20
15.5408965343808614
 30
0.0
 11
109.7499999999999858
 21
18.8317930687617334
 31
0.0
  0
LINE
  5
FE
100
AcDbEntity
100
AcDbLine
  8
0
 62
256
370
-1
 48
1.0
  6
BYLAYER
 10
96.25
 20
118.2141016151377499
 30
0.0
 11
90.25
 21
121.6782032302755141
 31
0.0
  0
LINE
  5
FF
100
AcDbEntity
100
AcDbLine
  8
0
 62
256
370
-1
 48
1.0
  6
BYLAYER
 10
95.9499999999999886
 20
15.5408965343808614
 30
0.0
 11
90.25
 21
18.8317930687617334
 31
0.0
  0
LINE
  5
100
100
AcDbEntity
100
AcDbLine
  8
0
 62
256
370
-1
 48
1.0
  6
BYLAYER
 10
115.75
 20
118.2141016151377499
 30
0.0
 11
109.75
 21
121.6782032302755141
 31
0.0
  0
LINE
  5
101
100
AcDbEntity
100
AcDbLine
  8
0
 62
256
370
-1
 48
1.0
  6
BYLAYER
 10
76.4499999999999886
 20
15.5408965343808614
 30
0.0
 11
70.75
 21
18.8317930687617334
 31
0.0
  0
LINE
  5
102
100
AcDbEntity
100
AcDbLine
  8
0
 62
256
370
-1
 48
1.0
  6
BYLAYER
 10
135.25
 20
118.2141016151377499
 30
0.0
 11
129.25
 21
121.6782032302755141
 31
0.0
  0
LINE
  5
103
100
AcDbEntity
100
AcDbLine
  8
0
 62
256
370
-1
 48
1.0
  6
BYLAYER
 10
56.9499999999999886
 20
15.5408965343808614
 30
0.0
 11
51.2499999999999929
 21
18.8317930687617334
 31
0.0
  0
LINE
  5
104
100
AcDbEntity
100
AcDbLine
  8
0
 62
256
370
-1
 48
1.0
  6
BYLAYER
 10
135.25
 20
98.7141016151377499
 30
0.0
 11
129.25
 21
102.1782032302755141
 31
0.0
  0
LINE
  5
105
100
AcDbEntity
100
AcDbLine
  8
0
 62
256
370
-1
 48
1.0
  6
BYLAYER
 10
17.9500000000000028
 20
74.0408965343808632
 30
0.0
 11
12.2500000000000071
 21
77.3317930687617405
 31
0.0
  0
LINE
  5
106
100
AcDbEntity
100
AcDbLine
  8
0
 62
256
370
-1
 48
1.0
  6
BYLAYER
 10
115.75
 20
98.7141016151377499
 30
0.0
 11
109.75
 21
102.1782032302755141
 31
0.0
  0
LINE
  5
107
100
AcDbEntity
100
AcDbLine
  8
0
 62
256
370
-1
 48
1.0
  6
BYLAYER
 10
17.9500000000000028
 20
54.5408965343808632
 30
0.0
 11
12.2500000000000071
 21
57.8317930687617405
 31
0.0
  0
LINE
  5
108
100
AcDbEntity
100
AcDbLine
  8
0
 62
256
370
-1
 48
1.0
  6
BYLAYER
 10
96.25
 20
98.7141016151377499
 30
0.0
 11
90.25
 21
102.1782032302755141
 31
0.0
  0
LINE
  5
109
100
AcDbEntity
100
AcDbLine
  8
0
 62
256
370
-1
 48
1.0
  6
BYLAYER
 10
17.9500000000000028
 20
35.0408965343808632
 30
0.0
 11
12.2500000000000071
 21
38.3317930687617334
 31
0.0
  0
LINE
  5
10A
100
AcDbEntity
100
AcDbLine
  8
0
 62
256
370
-1
 48
1.0
  6
BYLAYER
 10
76.75
 20
98.7141016151377499
 30
0.0
 11
70.75
 21
102.1782032302755141
 31
0.0
  0
LINE
  5
10B
100
AcDbEntity
100
AcDbLine
  8
0
 62
256
370
-1
 48
1.0
  6
BYLAYER
 10
37.4500000000000028
 20
15.5408965343808614
 30
0.0
 11
31.7500000000000071
 21
18.8317930687617334
 31
0.0
  0
LINE
  5
10C
100
AcDbEntity
100
AcDbLine
  8
0
 62
256
370
-1
 48
1.0
  6
BYLAYER
 10
57.25
 20
98.7141016151377499
 30
0.0
 11
51.25
 21
102.1782032302755141
 31
0.0
  0
LINE
  5
10D
100
AcDbEntity
100
AcDbLine
  8
0
 62
256
370
-1
 48
1.0
  6
BYLAYER
 10
17.9500000000000028
 20
15.5408965343808614
 30
0.0
 11
12.2500000000000071
 21
18.8317930687617334
 31
0.0
  0
LINE
  5
10E
100
AcDbEntity
100
AcDbLine
  8
0
 62
256
370
-1
 48
1.0
  6
BYLAYER
 10
37.75
 20
98.7141016151377499
 30
0.0
 11
31.75
 21
102.1782032302755141
 31
0.0
  0
LINE
  5
10F
100
AcDbEntity
100
AcDbLine
  8
0
 62
256
370
-1
 48
1.0
  6
BYLAYER
 10
129.25
 20
77.3317930687617405
 30
0.0
 11
123.5499999999999687
 21
74.0408965343808774
 31
0.0
  0
LINE
  5
110
100
AcDbEntity
100
AcDbLine
  8
0
 62
256
370
-1
 48
1.0
  6
BYLAYER
 10
18.2500000000000036
 20
98.7141016151377499
 30
0.0
 11
12.2500000000000018
 21
102.1782032302755141
 31
0.0
  0
LINE
  5
111
100
AcDbEntity
100
AcDbLine
  8
0
 62
256
370
-1
 48
1.0
  6
BYLAYER
 10
109.7499999999999858
 20
77.3317930687617405
 30
0.0
 11
104.0499999999999687
 21
74.0408965343808774
 31
0.0
  0
LINE
  5
112
100
AcDbEntity
100
AcDbLine
  8
0
 62
256
370
-1
 48
1.0
  6
BYLAYER
 10
18.2500000000000142
 20
157.2141016151377642
 30
0.0
 11
12.2500000000000142
 21
160.6782032302755283
 31
0.0
  0
LINE
  5
113
100
AcDbEntity
100
AcDbLine
  8
0
 62
256
370
-1
 48
1.0
  6
BYLAYER
 10
90.25
 20
77.3317930687617405
 30
0.0
 11
84.5499999999999829
 21
74.0408965343808774
 31
0.0
  0
LINE
  5
114
100
AcDbEntity
100
AcDbLine
  8
0
 62
256
370
-1
 48
1.0
  6
BYLAYER
 10
51.2500000000000142
 20
160.6782032302755283
 30
0.0
 11
45.25
 21
157.2141016151377642
 31
0.0
  0
LINE
  5
115
100
AcDbEntity
100
AcDbLine
  8
0
 62
256
370
-1
 48
1.0
  6
BYLAYER
 10
70.75
 20
77.3317930687617405
 30
0.0
 11
65.0499999999999829
 21
74.0408965343808774
 31
0.0
  0
LINE
  5
116
100
AcDbEntity
100
AcDbLine
  8
0
 62
256
370
-1
 48
1.0
  6
BYLAYER
 10
70.75
 20
160.6782032302755283
 30
0.0
 11
64.7499999999999858
 21
157.2141016151377642
 31
0.0
  0
LINE
  5
117
100
AcDbEntity
100
AcDbLine
  8
0
 62
256
370
-1
 48
1.0
  6
BYLAYER
 10
51.2500000000000071
 20
77.3317930687617405
 30
0.0
 11
45.5500000000000043
 21
74.0408965343808774
 31
0.0
  0
LINE
  5
118
100
AcDbEntity
100
AcDbLine
  8
0
 62
256
370
-1
 48
1.0
  6
BYLAYER
 10
90.2500000000000284
 20
160.6782032302755283
 30
0.0
 11
84.2500000000000142
 21
157.2141016151377642
 31
0.0
  0
LINE
  5
119
100
AcDbEntity
100
AcDbLine
  8
0
 62
256
370
-1
 48
1.0
  6
BYLAYER
 10
129.25
 20
57.8317930687617263
 30
0.0
 11
123.5499999999999829
 21
54.5408965343808632
 31
0.0
  0
LINE
  5
11A
100
AcDbEntity
100
AcDbLine
  8
0
 62
256
370
-1
 48
1.0
  6
BYLAYER
 10
109.7500000000000284
 20
160.6782032302755283
 30
0.0
 11
103.7500000000000142
 21
157.2141016151377642
 31
0.0
  0
LINE
  5
11B
100
AcDbEntity
100
AcDbLine
  8
0
 62
256
370
-1
 48
1.0
  6
BYLAYER
 10
109.7500000000000142
 20
57.8317930687617334
 30
0.0
 11
104.0500000000000114
 21
54.5408965343808703
 31
0.0
  0
LINE
  5
11C
100
AcDbEntity
100
AcDbLine
  8
0
 62
256
370
-1
 48
1.0
  6
BYLAYER
 10
129.2500000000000284
 20
160.6782032302755283
 30
0.0
 11
123.2500000000000142
 21
157.2141016151377642
 31
0.0
  0
LINE
  5
11D
100
AcDbEntity
100
AcDbLine
  8
0
 62
256
370
-1
 48
1.0
  6
BYLAYER
 10
90.2500000000000142
 20
57.8317930687617405
 30
0.0
 11
84.5500000000000114
 21
54.5408965343808774
 31
0.0
  0
LINE
  5
11E
100
AcDbEntity
100
AcDbLine
  8
0
 62
256
370
-1
 48
1.0
  6
BYLAYER
 10
129.2500000000000284
 20
141.1782032302755283
 30
0.0
 11
123.2500000000000142
 21
137.7141016151377642
 31
0.0
  0
LINE
  5
11F
100
AcDbEntity
100
AcDbLine
  8
0
 62
256
370
-1
 48
1.0
  6
BYLAYER
 10
70.7500000000000142
 20
57.8317930687617334
 30
0.0
 11
65.0500000000000114
 21
54.5408965343808703
 31
0.0
  0
LINE
  5
120
100
AcDbEntity
100
AcDbLine
  8
0
 62
256
370
-1
 48
1.0
  6
BYLAYER
 10
109.7500000000000142
 20
141.1782032302755283
 30
0.0
 11
103.75
 21
137.7141016151377642
 31
0.0
  0
LINE
  5
121
100
AcDbEntity
100
AcDbLine
  8
0
 62
256
370
-1
 48
1.0
  6
BYLAYER
 10
51.2500000000000071
 20
57.8317930687617334
 30
0.0
 11
45.5500000000000043
 21
54.5408965343808703
 31
0.0
  0
LINE
  5
122
100
AcDbEntity
100
AcDbLine
  8
0
 62
256
370
-1
 48
1.0
  6
BYLAYER
 10
90.25
 20
141.1782032302755283
 30
0.0
 11
84.2499999999999858
 21
137.7141016151377642
 31
0.0
  0
LINE
  5
123
100
AcDbEntity
100
AcDbLine
  8
0
 62
256
370
-1
 48
1.0
  6
BYLAYER
 10
129.25
 20
38.3317930687617334
 30
0.0
 11
123.5499999999999972
 21
35.0408965343808774
 31
0.0
  0
LINE
  5
124
100
AcDbEntity
100
AcDbLine
  8
0
 62
256
370
-1
 48
1.0
  6
BYLAYER
 10
70.75
 20
141.1782032302755283
 30
0.0
 11
64.7499999999999858
 21
137.7141016151377642
 31
0.0
  0
LINE
  5
125
100
AcDbEntity
100
AcDbLine
  8
0
 62
256
370
-1
 48
1.0
  6
BYLAYER
 10
109.75
 20
38.3317930687617334
 30
0.0
 11
104.0499999999999972
 21
35.0408965343808774
 31
0.0
  0
LINE
  5
126
100
AcDbEntity
100
AcDbLine
  8
0
 62
256
370
-1
 48
1.0
  6
BYLAYER
 10
51.25
 20
141.1782032302755283
 30
0.0
 11
45.2499999999999858
 21
137.7141016151377642
 31
0.0
  0
LINE
  5
127
100
AcDbEntity
100
AcDbLine
  8
0
 62
256
370
-1
 48
1.0
  6
BYLAYER
 10
90.25
 20
38.3317930687617334
 30
0.0
 11
84.5499999999999972
 21
35.0408965343808774
 31
0.0
  0
LINE
  5
128
100
AcDbEntity
100
AcDbLine
  8
0
 62
256
370
-1
 48
1.0
  6
BYLAYER
 10
31.75
 20
141.1782032302755283
 30
0.0
 11
25.7499999999999858
 21
137.7141016151377642
 31
0.0
  0
LINE
  5
129
100
AcDbEntity
100
AcDbLine
  8
0
 62
256
370
-1
 48
1.0
  6
BYLAYER
 10
70.7500000000000142
 20
38.3317930687617334
 30
0.0
 11
65.0500000000000114
 21
35.0408965343808774
 31
0.0
  0
LINE
  5
12A
100
AcDbEntity
100
AcDbLine
  8
0
 62
256
370
-1
 48
1.0
  6
BYLAYER
 10
12.25
 20
141.1782032302755283
 30
0.0
 11
6.2499999999999858
 21
137.7141016151377642
 31
0.0
  0
LINE
  5
12B
100
AcDbEntity
100
AcDbLine
  8
0
 62
256
370
-1
 48
1.0
  6
BYLAYER
 10
51.2500000000000071
 20
38.3317930687617334
 30
0.0
 11
45.5500000000000043
 21
35.0408965343808774
 31
0.0
  0
LINE
  5
12C
100
AcDbEntity
100
AcDbLine
  8
0
 62
256
370
-1
 48
1.0
  6
BYLAYER
 10
12.25
 20
121.6782032302755141
 30
0.0
 11
6.2499999999999858
 21
118.2141016151377642
 31
0.0
  0
LINE
  5
12D
100
AcDbEntity
100
AcDbLine
  8
0
 62
256
370
-1
 48
1.0
  6
BYLAYER
 10
31.7500000000000071
 20
77.3317930687617405
 30
0.0
 11
26.0500000000000043
 21
74.0408965343808774
 31
0.0
  0
LINE
  5
12E
100
AcDbEntity
100
AcDbLine
  8
0
 62
256
370
-1
 48
1.0
  6
BYLAYER
 10
31.75
 20
121.6782032302755141
 30
0.0
 11
25.7499999999999858
 21
118.2141016151377642
 31
0.0
  0
LINE
  5
12F
100
AcDbEntity
100
AcDbLine
  8
0
 62
256
370
-1
 48
1.0
  6
BYLAYER
 10
31.7500000000000071
 20
57.8317930687617405
 30
0.0
 11
26.0500000000000043
 21
54.5408965343808774
 31
0.0
  0
LINE
  5
130
100
AcDbEntity
100
AcDbLine
  8
0
 62
256
370
-1
 48
1.0
  6
BYLAYER
 10
51.25
 20
121.6782032302755141
 30
0.0
 11
45.2499999999999858
 21
118.2141016151377642
 31
0.0
  0
LINE
  5
131
100
AcDbEntity
100
AcDbLine
  8
0
 62
256
370
-1
 48
1.0
  6
BYLAYER
 10
31.7500000000000071
 20
38.3317930687617334
 30
0.0
 11
26.0500000000000043
 21
35.0408965343808774
 31
0.0
  0
LINE
  5
132
100
AcDbEntity
100
AcDbLine
  8
0
 62
256
370
-1
 48
1.0
  6
BYLAYER
 10
70.75
 20
121.6782032302755141
 30
0.0
 11
64.7499999999999858
 21
118.2141016151377642
 31
0.0
  0
LINE
  5
133
100
AcDbEntity
100
AcDbLine
  8
0
 62
256
370
-1
 48
1.0
  6
BYLAYER
 10
129.25
 20
18.8317930687617334
 30
0.0
 11
123.5499999999999687
 21
15.5408965343808756
 31
0.0
  0
LINE
  5
134
100
AcDbEntity
100
AcDbLine
  8
0
 62
256
370
-1
 48
1.0
  6
BYLAYER
 10
90.25
 20
121.6782032302755141
 30
0.0
 11
84.2499999999999858
 21
118.2141016151377642
 31
0.0
  0
LINE
  5
135
100
AcDbEntity
100
AcDbLine
  8
0
 62
256
370
-1
 48
1.0
  6
BYLAYER
 10
109.7499999999999858
 20
18.8317930687617334
 30
0.0
 11
104.0499999999999687
 21
15.5408965343808756
 31
0.0
  0
LINE
  5
136
100
AcDbEntity
100
AcDbLine
  8
0
 62
256
370
-1
 48
1.0
  6
BYLAYER
 10
109.75
 20
121.6782032302755141
 30
0.0
 11
103.7499999999999858
 21
118.2141016151377642
 31
0.0
  0
LINE
  5
137
100
AcDbEntity
100
AcDbLine
  8
0
 62
256
370
-1
 48
1.0
  6
BYLAYER
 10
90.25
 20
18.8317930687617334
 30
0.0
 11
84.5499999999999829
 21
15.5408965343808756
 31
0.0
  0
LINE
  5
138
100
AcDbEntity
100
AcDbLine
  8
0
 62
256
370
-1
 48
1.0
  6
BYLAYER
 10
129.25
 20
121.6782032302755141
 30
0.0
 11
123.2499999999999858
 21
118.2141016151377642
 31
0.0
  0
LINE
  5
139
100
AcDbEntity
100
AcDbLine
  8
0
 62
256
370
-1
 48
1.0
  6
BYLAYER
 10
70.75
 20
18.8317930687617334
 30
0.0
 11
65.0499999999999829
 21
15.5408965343808756
 31
0.0
  0
LINE
  5
13A
100
AcDbEntity
100
AcDbLine
  8
0
 62
256
370
-1
 48
1.0
  6
BYLAYER
 10
129.25
 20
102.1782032302755141
 30
0.0
 11
123.2499999999999858
 21
98.7141016151377642
 31
0.0
  0
LINE
  5
13B
100
AcDbEntity
100
AcDbLine
  8
0
 62
256
370
-1
 48
1.0
  6
BYLAYER
 10
51.2499999999999929
 20
18.8317930687617334
 30
0.0
 11
45.5499999999999901
 21
15.5408965343808756
 31
0.0
  0
LINE
  5
13C
100
AcDbEntity
100
AcDbLine
  8
0
 62
256
370
-1
 48
1.0
  6
BYLAYER
 10
109.75
 20
102.1782032302755141
 30
0.0
 11
103.75
 21
98.7141016151377642
 31
0.0
  0
LINE
  5
13D
100
AcDbEntity
100
AcDbLine
  8
0
 62
256
370
-1
 48
1.0
  6
BYLAYER
 10
12.2500000000000071
 20
77.3317930687617405
 30
0.0
 11
6.5500000000000025
 21
74.0408965343808774
 31
0.0
  0
LINE
  5
13E
100
AcDbEntity
100
AcDbLine
  8
0
 62
256
370
-1
 48
1.0
  6
BYLAYER
 10
90.25
 20
102.1782032302755141
 30
0.0
 11
84.25
 21
98.7141016151377642
 31
0.0
  0
LINE
  5
13F
100
AcDbEntity
100
AcDbLine
  8
0
 62
256
370
-1
 48
1.0
  6
BYLAYER
 10
12.2500000000000071
 20
57.8317930687617405
 30
0.0
 11
6.5500000000000034
 21
54.5408965343808774
 31
0.0
  0
LINE
  5
140
100
AcDbEntity
100
AcDbLine
  8
0
 62
256
370
-1
 48
1.0
  6
BYLAYER
 10
70.75
 20
102.1782032302755141
 30
0.0
 11
64.75
 21
98.7141016151377642
 31
0.0
  0
LINE
  5
141
100
AcDbEntity
100
AcDbLine
  8
0
 62
256
370
-1
 48
1.0
  6
BYLAYER
 10
12.2500000000000071
 20
38.3317930687617334
 30
0.0
 11
6.5500000000000043
 21
35.0408965343808774
 31
0.0
  0
LINE
  5
142
100
AcDbEntity
100
AcDbLine
  8
0
 62
256
370
-1
 48
1.0
  6
BYLAYER
 10
51.25
 20
102.1782032302755141
 30
0.0
 11
45.25
 21
98.7141016151377642
 31
0.0
  0
LINE
  5
143
100
AcDbEntity
100
AcDbLine
  8
0
 62
256
370
-1
 48
1.0
  6
BYLAYER
 10
31.7500000000000071
 20
18.8317930687617334
 30
0.0
 11
26.0500000000000043
 21
15.5408965343808756
 31
0.0
  0
LINE
  5
144
100
AcDbEntity
100
AcDbLine
  8
0
 62
256
370
-1
 48
1.0
  6
BYLAYER
 10
31.75
 20
102.1782032302755141
 30
0.0
 11
25.7500000000000036
 21
98.7141016151377642
 31
0.0
  0
LINE
  5
145
100
AcDbEntity
100
AcDbLine
  8
0
 62
256
370
-1
 48
1.0
  6
BYLAYER
 10
12.2500000000000071
 20
18.8317930687617334
 30
0.0
 11
6.5500000000000052
 21
15.5408965343808756
 31
0.0
  0
LINE
  5
146
100
AcDbEntity
100
AcDbLine
  8
0
 62
256
370
-1
 48
1.0
  6
BYLAYER
 10
12.2500000000000018
 20
102.1782032302755141
 30
0.0
 11
6.2500000000000044
 21
98.7141016151377642
 31
0.0
  0
LINE
  5
147
100
AcDbEntity
100
AcDbLine
  8
0
 62
256
370
-1
 48
1.0
  6
BYLAYER
 10
123.5499999999999687
 20
74.0408965343808774
 30
0.0
 11
123.5499999999999687
 21
67.4591034656191368
 31
0.0
  0
LINE
  5
148
100
AcDbEntity
100
AcDbLine
  8
0
 62
256
370
-1
 48
1.0
  6
BYLAYER
 10
12.2500000000000142
 20
160.6782032302755283
 30
0.0
 11
6.25
 21
157.2141016151377642
 31
0.0
  0
LINE
  5
149
100
AcDbEntity
100
AcDbLine
  8
0
 62
256
370
-1
 48
1.0
  6
BYLAYER
 10
104.0499999999999687
 20
74.0408965343808774
 30
0.0
 11
104.0499999999999687
 21
67.4591034656191368
 31
0.0
  0
LINE
  5
14A
100
AcDbEntity
100
AcDbLine
  8
0
 62
256
370
-1
 48
1.0
  6
BYLAYER
 10
31.7500000000000142
 20
160.6782032302755283
 30
0.0
 11
25.75
 21
157.2141016151377642
 31
0.0
  0
LINE
  5
14B
100
AcDbEntity
100
AcDbLine
  8
0
 62
256
370
-1
 48
1.0
  6
BYLAYER
 10
84.5499999999999829
 20
74.0408965343808774
 30
0.0
 11
84.5499999999999829
 21
67.4591034656191368
 31
0.0
  0
LINE
  5
14C
100
AcDbEntity
100
AcDbLine
  8
0
 62
256
370
-1
 48
1.0
  6
BYLAYER
 10
45.25
 20
157.2141016151377642
 30
0.0
 11
45.25
 21
150.2858983848622643
 31
0.0
  0
LINE
  5
14D
100
AcDbEntity
100
AcDbLine
  8
0
 62
256
370
-1
 48
1.0
  6
BYLAYER
 10
65.0499999999999829
 20
74.0408965343808774
 30
0.0
 11
65.0499999999999829
 21
67.4591034656191368
 31
0.0
  0
LINE
  5
14E
100
AcDbEntity
100
AcDbLine
  8
0
 62
256
370
-1
 48
1.0
  6
BYLAYER
 10
64.7499999999999858
 20
157.2141016151377642
 30
0.0
 11
64.7499999999999858
 21
150.2858983848622643
 31
0.0
  0
LINE
  5
14F
100
AcDbEntity
100
AcDbLine
  8
0
 62
256
370
-1
 48
1.0
  6
BYLAYER
 10
45.5500000000000043
 20
74.0408965343808774
 30
0.0
 11
45.5499999999999972
 21
67.4591034656191368
 31
0.0
  0
LINE
  5
150
100
AcDbEntity
100
AcDbLine
  8
0
 62
256
370
-1
 48
1.0
  6
BYLAYER
 10
84.2500000000000142
 20
157.2141016151377642
 30
0.0
 11
84.2500000000000142
 21
150.2858983848622643
 31
0.0
  0
LINE
  5
151
100
AcDbEntity
100
AcDbLine
  8
0
 62
256
370
-1
 48
1.0
  6
BYLAYER
 10
123.5499999999999829
 20
54.5408965343808632
 30
0.0
 11
123.5499999999999829
 21
47.9591034656191226
 31
0.0
  0
LINE
  5
152
100
AcDbEntity
100
AcDbLine
  8
0
 62
256
370
-1
 48
1.0
  6
BYLAYER
 10
103.7500000000000142
 20
157.2141016151377642
 30
0.0
 11
103.7500000000000142
 21
150.2858983848622643
 31
0.0
  0
LINE
  5
153
100
AcDbEntity
100
AcDbLine
  8
0
 62
256
370
-1
 48
1.0
  6
BYLAYER
 10
104.0500000000000114
 20
54.5408965343808703
 30
0.0
 11
104.0500000000000114
 21
47.9591034656191297
 31
0.0
  0
LINE
  5
154
100
AcDbEntity
100
AcDbLine
  8
0
 62
256
370
-1
 48
1.0
  6
BYLAYER
 10
123.2500000000000142
 20
157.2141016151377642
 30
0.0
 11
123.2500000000000142
 21
150.2858983848622643
 31
0.0
  0
LINE
  5
155
100
AcDbEntity
100
AcDbLine
  8
0
 62
256
370
-1
 48
1.0
  6
BYLAYER
 10
84.5500000000000114
 20
54.5408965343808774
 30
0.0
 11
84.5500000000000114
 21
47.9591034656191368
 31
0.0
  0
LINE
  5
156
100
AcDbEntity
100
AcDbLine
  8
0
 62
256
370
-1
 48
1.0
  6
BYLAYER
 10
123.2500000000000142
 20
137.7141016151377642
 30
0.0
 11
123.2500000000000142
 21
130.7858983848622643
 31
0.0
  0
LINE
  5
157
100
AcDbEntity
100
AcDbLine
  8
0
 62
256
370
-1
 48
1.0
  6
BYLAYER
 10
65.0500000000000114
 20
54.5408965343808703
 30
0.0
 11
65.0500000000000114
 21
47.9591034656191297
 31
0.0
  0
LINE
  5
158
100
AcDbEntity
100
AcDbLine
  8
0
 62
256
370
-1
 48
1.0
  6
BYLAYER
 10
103.75
 20
137.7141016151377642
 30
0.0
 11
103.75
 21
130.7858983848622643
 31
0.0
  0
LINE
  5
159
100
AcDbEntity
100
AcDbLine
  8
0
 62
256
370
-1
 48
1.0
  6
BYLAYER
 10
45.5500000000000043
 20
54.5408965343808703
 30
0.0
 11
45.5499999999999972
 21
47.9591034656191297
 31
0.0
  0
LINE
  5
15A
100
AcDbEntity
100
AcDbLine
  8
0
 62
256
370
-1
 48
1.0
  6
BYLAYER
 10
84.2499999999999858
 20
137.7141016151377642
 30
0.0
 11
84.2499999999999858
 21
130.7858983848622643
 31
0.0
  0
LINE
  5
15B
100
AcDbEntity
100
AcDbLine
  8
0
 62
256
370
-1
 48
1.0
  6
BYLAYER
 10
123.5499999999999972
 20
35.0408965343808774
 30
0.0
 11
123.5499999999999972
 21
28.4591034656191368
 31
0.0
  0
LINE
  5
15C
100
AcDbEntity
100
AcDbLine
  8
0
 62
256
370
-1
 48
1.0
  6
BYLAYER
 10
64.7499999999999858
 20
137.7141016151377642
 30
0.0
 11
64.7499999999999858
 21
130.7858983848622643
 31
0.0
  0
LINE
  5
15D
100
AcDbEntity
100
AcDbLine
  8
0
 62
256
370
-1
 48
1.0
  6
BYLAYER
 10
104.0499999999999972
 20
35.0408965343808774
 30
0.0
 11
104.0499999999999972
 21
28.4591034656191368
 31
0.0
  0
LINE
  5
15E
100
AcDbEntity
100
AcDbLine
  8
0
 62
256
370
-1
 48
1.0
  6
BYLAYER
 10
45.2499999999999858
 20
137.7141016151377642
 30
0.0
 11
45.2499999999999858
 21
130.7858983848622643
 31
0.0
  0
LINE
  5
15F
100
AcDbEntity
100
AcDbLine
  8
0
 62
256
370
-1
 48
1.0
  6
BYLAYER
 10
84.5499999999999972
 20
35.0408965343808774
 30
0.0
 11
84.5499999999999972
 21
28.4591034656191368
 31
0.0
  0
LINE
  5
160
100
AcDbEntity
100
AcDbLine
  8
0
 62
256
370
-1
 48
1.0
  6
BYLAYER
 10
25.7499999999999858
 20
137.7141016151377642
 30
0.0
 11
25.7499999999999858
 21
130.7858983848622643
 31
0.0
  0
LINE
  5
161
100
AcDbEntity
100
AcDbLine
  8
0
 62
256
370
-1
 48
1.0
  6
BYLAYER
 10
65.0500000000000114
 20
35.0408965343808774
 30
0.0
 11
65.0500000000000114
 21
28.4591034656191368
 31
0.0
  0
LINE
  5
162
100
AcDbEntity
100
AcDbLine
  8
0
 62
256
370
-1
 48
1.0
  6
BYLAYER
 10
6.2499999999999858
 20
137.7141016151377642
 30
0.0
 11
6.2499999999999858
 21
130.7858983848622643
 31
0.0
  0
LINE
  5
163
100
AcDbEntity
100
AcDbLine
  8
0
 62
256
370
-1
 48
1.0
  6
BYLAYER
 10
45.5500000000000043
 20
35.0408965343808774
 30
0.0
 11
45.5499999999999972
 21
28.4591034656191368
 31
0.0
  0
LINE
  5
164
100
AcDbEntity
100
AcDbLine
  8
0
 62
256
370
-1
 48
1.0
  6
BYLAYER
 10
6.2499999999999858
 20
118.2141016151377642
 30
0.0
 11
6.2499999999999858
 21
111.2858983848622501
 31
0.0
  0
LINE
  5
165
100
AcDbEntity
100
AcDbLine
  8
0
 62
256
370
-1
 48
1.0
  6
BYLAYER
 10
26.0500000000000043
 20
74.0408965343808774
 30
0.0
 11
26.0499999999999972
 21
67.4591034656191368
 31
0.0
  0
LINE
  5
166
100
AcDbEntity
100
AcDbLine
  8
0
 62
256
370
-1
 48
1.0
  6
BYLAYER
 10
25.7499999999999858
 20
118.2141016151377642
 30
0.0
 11
25.7499999999999858
 21
111.2858983848622501
 31
0.0
  0
LINE
  5
167
100
AcDbEntity
100
AcDbLine
  8
0
 62
256
370
-1
 48
1.0
  6
BYLAYER
 10
26.0500000000000043
 20
54.5408965343808774
 30
0.0
 11
26.0499999999999972
 21
47.9591034656191368
 31
0.0
  0
LINE
  5
168
100
AcDbEntity
100
AcDbLine
  8
0
 62
256
370
-1
 48
1.0
  6
BYLAYER
 10
45.2499999999999858
 20
118.2141016151377642
 30
0.0
 11
45.2499999999999858
 21
111.2858983848622501
 31
0.0
  0
LINE
  5
169
100
AcDbEntity
100
AcDbLine
  8
0
 62
256
370
-1
 48
1.0
  6
BYLAYER
 10
26.0500000000000043
 20
35.0408965343808774
 30
0.0
 11
26.0499999999999972
 21
28.4591034656191368
 31
0.0
  0
LINE
  5
16A
100
AcDbEntity
100
AcDbLine
  8
0
 62
256
370
-1
 48
1.0
  6
BYLAYER
 10
64.7499999999999858
 20
118.2141016151377642
 30
0.0
 11
64.7499999999999858
 21
111.2858983848622501
 31
0.0
  0
LINE
  5
16B
100
AcDbEntity
100
AcDbLine
  8
0
 62
256
370
-1
 48
1.0
  6
BYLAYER
 10
123.5499999999999687
 20
15.5408965343808756
 30
0.0
 11
123.5499999999999687
 21
8.9591034656191386
 31
0.0
  0
LINE
  5
16C
100
AcDbEntity
100
AcDbLine
  8
0
 62
256
370
-1
 48
1.0
  6
BYLAYER
 10
84.2499999999999858
 20
118.2141016151377642
 30
0.0
 11
84.2499999999999858
 21
111.2858983848622501
 31
0.0
  0
LINE
  5
16D
100
AcDbEntity
100
AcDbLine
  8
0
 62
256
370
-1
 48
1.0
  6
BYLAYER
 10
104.0499999999999687
 20
15.5408965343808756
 30
0.0
 11
104.0499999999999687
 21
8.9591034656191386
 31
0.0
  0
LINE
  5
16E
100
AcDbEntity
100
AcDbLine
  8
0
 62
256
370
-1
 48
1.0
  6
BYLAYER
 10
103.7499999999999858
 20
118.2141016151377642
 30
0.0
 11
103.7499999999999858
 21
111.2858983848622501
 31
0.0
  0
LINE
  5
16F
100
AcDbEntity
100
AcDbLine
  8
0
 62
256
370
-1
 48
1.0
  6
BYLAYER
 10
84.5499999999999829
 20
15.5408965343808756
 30
0.0
 11
84.5499999999999829
 21
8.9591034656191386
 31
0.0
  0
LINE
  5
170
100
AcDbEntity
100
AcDbLine
  8
0
 62
256
370
-1
 48
1.0
  6
BYLAYER
 10
123.2499999999999858
 20
118.2141016151377642
 30
0.0
 11
123.2499999999999858
 21
111.2858983848622501
 31
0.0
  0
LINE
  5
171
100
AcDbEntity
100
AcDbLine
  8
0
 62
256
370
-1
 48
1.0
  6
BYLAYER
 10
65.0499999999999829
 20
15.5408965343808756
 30
0.0
 11
65.0499999999999829
 21
8.9591034656191386
 31
0.0
  0
LINE
  5
172
100
AcDbEntity
100
AcDbLine
  8
0
 62
256
370
-1
 48
1.0
  6
BYLAYER
 10
123.2499999999999858
 20
98.7141016151377642
 30
0.0
 11
123.2499999999999858
 21
91.7858983848622501
 31
0.0
  0
LINE
  5
173
100
AcDbEntity
100
AcDbLine
  8
0
 62
256
370
-1
 48
1.0
  6
BYLAYER
 10
45.5499999999999901
 20
15.5408965343808756
 30
0.0
 11
45.5499999999999829
 21
8.9591034656191386
 31
0.0
  0
LINE
  5
174
100
AcDbEntity
100
AcDbLine
  8
0
 62
256
370
-1
 48
1.0
  6
BYLAYER
 10
103.75
 20
98.7141016151377642
 30
0.0
 11
103.75
 21
91.7858983848622501
 31
0.0
  0
LINE
  5
175
100
AcDbEntity
100
AcDbLine
  8
0
 62
256
370
-1
 48
1.0
  6
BYLAYER
 10
6.5500000000000025
 20
74.0408965343808774
 30
0.0
 11
6.5499999999999945
 21
67.4591034656191368
 31
0.0
  0
LINE
  5
176
100
AcDbEntity
100
AcDbLine
  8
0
 62
256
370
-1
 48
1.0
  6
BYLAYER
 10
84.25
 20
98.7141016151377642
 30
0.0
 11
84.25
 21
91.7858983848622501
 31
0.0
  0
LINE
  5
177
100
AcDbEntity
100
AcDbLine
  8
0
 62
256
370
-1
 48
1.0
  6
BYLAYER
 10
6.5500000000000034
 20
54.5408965343808774
 30
0.0
 11
6.5499999999999954
 21
47.9591034656191368
 31
0.0
  0
LINE
  5
178
100
AcDbEntity
100
AcDbLine
  8
0
 62
256
370
-1
 48
1.0
  6
BYLAYER
 10
64.75
 20
98.7141016151377642
 30
0.0
 11
64.75
 21
91.7858983848622501
 31
0.0
  0
LINE
  5
179
100
AcDbEntity
100
AcDbLine
  8
0
 62
256
370
-1
 48
1.0
  6
BYLAYER
 10
6.5500000000000043
 20
35.0408965343808774
 30
0.0
 11
6.5499999999999963
 21
28.4591034656191368
 31
0.0
  0
LINE
  5
17A
100
AcDbEntity
100
AcDbLine
  8
0
 62
256
370
-1
 48
1.0
  6
BYLAYER
 10
45.25
 20
98.7141016151377642
 30
0.0
 11
45.25
 21
91.7858983848622501
 31
0.0
  0
LINE
  5
17B
100
AcDbEntity
100
AcDbLine
  8
0
 62
256
370
-1
 48
1.0
  6
BYLAYER
 10
26.0500000000000043
 20
15.5408965343808756
 30
0.0
 11
26.0499999999999972
 21
8.9591034656191386
 31
0.0
  0
LINE
  5
17C
100
AcDbEntity
100
AcDbLine
  8
0
 62
256
370
-1
 48
1.0
  6
BYLAYER
 10
25.7500000000000036
 20
98.7141016151377642
 30
0.0
 11
25.7499999999999964
 21
91.7858983848622501
 31
0.0
  0
LINE
  5
17D
100
AcDbEntity
100
AcDbLine
  8
0
 62
256
370
-1
 48
1.0
  6
BYLAYER
 10
6.5500000000000052
 20
15.5408965343808756
 30
0.0
 11
6.5499999999999972
 21
8.9591034656191386
 31
0.0
  0
LINE
  5
17E
100
AcDbEntity
100
AcDbLine
  8
0
 62
256
370
-1
 48
1.0
  6
BYLAYER
 10
6.2500000000000044
 20
98.7141016151377642
 30
0.0
 11
6.2499999999999964
 21
91.7858983848622501
 31
0.0
  0
LINE
  5
17F
100
AcDbEntity
100
AcDbLine
  8
0
 62
256
370
-1
 48
1.0
  6
BYLAYER
 10
123.5499999999999687
 20
67.4591034656191368
 30
0.0
 11
129.2499999999999432
 21
64.1682069312382737
 31
0.0
  0
LINE
  5
180
100
AcDbEntity
100
AcDbLine
  8
0
 62
256
370
-1
 48
1.0
  6
BYLAYER
 10
6.25
 20
157.2141016151377642
 30
0.0
 11
6.25
 21
150.2858983848622643
 31
0.0
  0
LINE
  5
181
100
AcDbEntity
100
AcDbLine
  8
0
 62
256
370
-1
 48
1.0
  6
BYLAYER
 10
104.0499999999999687
 20
67.4591034656191368
 30
0.0
 11
109.7499999999999574
 21
64.1682069312382737
 31
0.0
  0
LINE
  5
182
100
AcDbEntity
100
AcDbLine
  8
0
 62
256
370
-1
 48
1.0
  6
BYLAYER
 10
25.75
 20
157.2141016151377642
 30
0.0
 11
25.75
 21
150.2858983848622643
 31
0.0
  0
LINE
  5
183
100
AcDbEntity
100
AcDbLine
  8
0
 62
256
370
-1
 48
1.0
  6
BYLAYER
 10
84.5499999999999829
 20
67.4591034656191368
 30
0.0
 11
90.2499999999999716
 21
64.1682069312382737
 31
0.0
  0
LINE
  5
184
100
AcDbEntity
100
AcDbLine
  8
0
 62
256
370
-1
 48
1.0
  6
BYLAYER
 10
45.25
 20
150.2858983848622643
 30
0.0
 11
51.2500000000000142
 21
146.8217967697245001
 31
0.0
  0
LINE
  5
185
100
AcDbEntity
100
AcDbLine
  8
0
 62
256
370
-1
 48
1.0
  6
BYLAYER
 10
65.0499999999999829
 20
67.4591034656191368
 30
0.0
 11
70.7499999999999716
 21
64.1682069312382737
 31
0.0
  0
LINE
  5
186
100
AcDbEntity
100
AcDbLine
  8
0
 62
256
370
-1
 48
1.0
  6
BYLAYER
 10
64.7499999999999858
 20
150.2858983848622643
 30
0.0
 11
70.75
 21
146.8217967697245001
 31
0.0
  0
LINE
  5
187
100
AcDbEntity
100
AcDbLine
  8
0
 62
256
370
-1
 48
1.0
  6
BYLAYER
 10
45.5499999999999972
 20
67.4591034656191368
 30
0.0
 11
51.2499999999999929
 21
64.1682069312382737
 31
0.0
  0
LINE
  5
188
100
AcDbEntity
100
AcDbLine
  8
0
 62
256
370
-1
 48
1.0
  6
BYLAYER
 10
84.2500000000000142
 20
150.2858983848622643
 30
0.0
 11
90.2500000000000284
 21
146.8217967697245001
 31
0.0
  0
LINE
  5
189
100
AcDbEntity
100
AcDbLine
  8
0
 62
256
370
-1
 48
1.0
  6
BYLAYER
 10
123.5499999999999829
 20
47.9591034656191226
 30
0.0
 11
129.2499999999999716
 21
44.6682069312382595
 31
0.0
  0
LINE
  5
18A
100
AcDbEntity
100
AcDbLine
  8
0
 62
256
370
-1
 48
1.0
  6
BYLAYER
 10
103.7500000000000142
 20
150.2858983848622643
 30
0.0
 11
109.7500000000000284
 21
146.8217967697245001
 31
0.0
  0
LINE
  5
18B
100
AcDbEntity
100
AcDbLine
  8
0
 62
256
370
-1
 48
1.0
  6
BYLAYER
 10
104.0500000000000114
 20
47.9591034656191297
 30
0.0
 11
109.75
 21
44.6682069312382666
 31
0.0
  0
LINE
  5
18C
100
AcDbEntity
100
AcDbLine
  8
0
 62
256
370
-1
 48
1.0
  6
BYLAYER
 10
123.2500000000000142
 20
150.2858983848622643
 30
0.0
 11
129.2500000000000284
 21
146.8217967697245001
 31
0.0
  0
LINE
  5
18D
100
AcDbEntity
100
AcDbLine
  8
0
 62
256
370
-1
 48
1.0
  6
BYLAYER
 10
84.5500000000000114
 20
47.9591034656191368
 30
0.0
 11
90.25
 21
44.6682069312382737
 31
0.0
  0
LINE
  5
18E
100
AcDbEntity
100
AcDbLine
  8
0
 62
256
370
-1
 48
1.0
  6
BYLAYER
 10
123.2500000000000142
 20
130.7858983848622643
 30
0.0
 11
129.2500000000000284
 21
127.3217967697245001
 31
0.0
  0
LINE
  5
18F
100
AcDbEntity
100
AcDbLine
  8
0
 62
256
370
-1
 48
1.0
  6
BYLAYER
 10
65.0500000000000114
 20
47.9591034656191297
 30
0.0
 11
70.75
 21
44.6682069312382666
 31
0.0
  0
LINE
  5
190
100
AcDbEntity
100
AcDbLine
  8
0
 62
256
370
-1
 48
1.0
  6
BYLAYER
 10
103.75
 20
130.7858983848622643
 30
0.0
 11
109.7500000000000142
 21
127.3217967697245001
 31
0.0
  0
LINE
  5
191
100
AcDbEntity
100
AcDbLine
  8
0
 62
256
370
-1
 48
1.0
  6
BYLAYER
 10
45.5499999999999972
 20
47.9591034656191297
 30
0.0
 11
51.2499999999999929
 21
44.6682069312382666
 31
0.0
  0
LINE
  5
192
100
AcDbEntity
100
AcDbLine
  8
0
 62
256
370
-1
 48
1.0
  6
BYLAYER
 10
84.2499999999999858
 20
130.7858983848622643
 30
0.0
 11
90.25
 21
127.3217967697245001
 31
0.0
  0
LINE
  5
193
100
AcDbEntity
100
AcDbLine
  8
0
 62
256
370
-1
 48
1.0
  6
BYLAYER
 10
123.5499999999999972
 20
28.4591034656191368
 30
0.0
 11
129.25
 21
25.1682069312382666
 31
0.0
  0
LINE
  5
194
100
AcDbEntity
100
AcDbLine
  8
0
 62
256
370
-1
 48
1.0
  6
BYLAYER
 10
64.7499999999999858
 20
130.7858983848622643
 30
0.0
 11
70.75
 21
127.3217967697245001
 31
0.0
  0
LINE
  5
195
100
AcDbEntity
100
AcDbLine
  8
0
 62
256
370
-1
 48
1.0
  6
BYLAYER
 10
104.0499999999999972
 20
28.4591034656191368
 30
0.0
 11
109.7499999999999858
 21
25.1682069312382666
 31
0.0
  0
LINE
  5
196
100
AcDbEntity
100
AcDbLine
  8
0
 62
256
370
-1
 48
1.0
  6
BYLAYER
 10
45.2499999999999858
 20
130.7858983848622643
 30
0.0
 11
51.25
 21
127.3217967697245001
 31
0.0
  0
LINE
  5
197
100
AcDbEntity
100
AcDbLine
  8
0
 62
256
370
-1
 48
1.0
  6
BYLAYER
 10
84.5499999999999972
 20
28.4591034656191368
 30
0.0
 11
90.2499999999999858
 21
25.1682069312382666
 31
0.0
  0
LINE
  5
198
100
AcDbEntity
100
AcDbLine
  8
0
 62
256
370
-1
 48
1.0
  6
BYLAYER
 10
25.7499999999999858
 20
130.7858983848622643
 30
0.0
 11
31.75
 21
127.3217967697245001
 31
0.0
  0
LINE
  5
199
100
AcDbEntity
100
AcDbLine
  8
0
 62
256
370
-1
 48
1.0
  6
BYLAYER
 10
65.0500000000000114
 20
28.4591034656191368
 30
0.0
 11
70.75
 21
25.1682069312382666
 31
0.0
  0
LINE
  5
19A
100
AcDbEntity
100
AcDbLine
  8
0
 62
256
370
-1
 48
1.0
  6
BYLAYER
 10
6.2499999999999858
 20
130.7858983848622643
 30
0.0
 11
12.25
 21
127.3217967697245001
 31
0.0
  0
LINE
  5
19B
100
AcDbEntity
100
AcDbLine
  8
0
 62
256
370
-1
 48
1.0
  6
BYLAYER
 10
45.5499999999999972
 20
28.4591034656191368
 30
0.0
 11
51.2499999999999929
 21
25.1682069312382666
 31
0.0
  0
LINE
  5
19C
100
AcDbEntity
100
AcDbLine
  8
0
 62
256
370
-1
 48
1.0
  6
BYLAYER
 10
6.2499999999999858
 20
111.2858983848622501
 30
0.0
 11
12.25
 21
107.8217967697244859
 31
0.0
  0
LINE
  5
19D
100
AcDbEntity
100
AcDbLine
  8
0
 62
256
370
-1
 48
1.0
  6
BYLAYER
 10
26.0499999999999972
 20
67.4591034656191368
 30
0.0
 11
31.7499999999999929
 21
64.1682069312382737
 31
0.0
  0
LINE
  5
19E
100
AcDbEntity
100
AcDbLine
  8
0
 62
256
370
-1
 48
1.0
  6
BYLAYER
 10
25.7499999999999858
 20
111.2858983848622501
 30
0.0
 11
31.75
 21
107.8217967697244859
 31
0.0
  0
LINE
  5
19F
100
AcDbEntity
100
AcDbLine
  8
0
 62
256
370
-1
 48
1.0
  6
BYLAYER
 10
26.0499999999999972
 20
47.9591034656191368
 30
0.0
 11
31.7499999999999929
 21
44.6682069312382737
 31
0.0
  0
LINE
  5
1A0
100
AcDbEntity
100
AcDbLine
  8
0
 62
256
370
-1
 48
1.0
  6
BYLAYER
 10
45.2499999999999858
 20
111.2858983848622501
 30
0.0
 11
51.25
 21
107.8217967697244859
 31
0.0
  0
LINE
  5
1A1
100
AcDbEntity
100
AcDbLine
  8
0
 62
256
370
-1
 48
1.0
  6
BYLAYER
 10
26.0499999999999972
 20
28.4591034656191368
 30
0.0
 11
31.7499999999999929
 21
25.1682069312382666
 31
0.0
  0
LINE
  5
1A2
100
AcDbEntity
100
AcDbLine
  8
0
 62
256
370
-1
 48
1.0
  6
BYLAYER
 10
64.7499999999999858
 20
111.2858983848622501
 30
0.0
 11
70.75
 21
107.8217967697244859
 31
0.0
  0
LINE
  5
1A3
100
AcDbEntity
100
AcDbLine
  8
0
 62
256
370
-1
 48
1.0
  6
BYLAYER
 10
123.5499999999999687
 20
8.9591034656191386
 30
0.0
 11
129.2499999999999432
 21
5.6682069312382666
 31
0.0
  0
LINE
  5
1A4
100
AcDbEntity
100
AcDbLine
  8
0
 62
256
370
-1
 48
1.0
  6
BYLAYER
 10
84.2499999999999858
 20
111.2858983848622501
 30
0.0
 11
90.25
 21
107.8217967697244859
 31
0.0
  0
LINE
  5
1A5
100
AcDbEntity
100
AcDbLine
  8
0
 62
256
370
-1
 48
1.0
  6
BYLAYER
 10
104.0499999999999687
 20
8.9591034656191386
 30
0.0
 11
109.7499999999999574
 21
5.6682069312382666
 31
0.0
  0
LINE
  5
1A6
100
AcDbEntity
100
AcDbLine
  8
0
 62
256
370
-1
 48
1.0
  6
BYLAYER
 10
103.7499999999999858
 20
111.2858983848622501
 30
0.0
 11
109.75
 21
107.8217967697244859
 31
0.0
  0
LINE
  5
1A7
100
AcDbEntity
100
AcDbLine
  8
0
 62
256
370
-1
 48
1.0
  6
BYLAYER
 10
84.5499999999999829
 20
8.9591034656191386
 30
0.0
 11
90.2499999999999716
 21
5.6682069312382666
 31
0.0
  0
LINE
  5
1A8
100
AcDbEntity
100
AcDbLine
  8
0
 62
256
370
-1
 48
1.0
  6
BYLAYER
 10
123.2499999999999858
 20
111.2858983848622501
 30
0.0
 11
129.25
 21
107.8217967697244859
 31
0.0
  0
LINE
  5
1A9
100
AcDbEntity
100
AcDbLine
  8
0
 62
256
370
-1
 48
1.0
  6
BYLAYER
 10
65.0499999999999829
 20
8.9591034656191386
 30
0.0
 11
70.7499999999999716
 21
5.6682069312382666
 31
0.0
  0
LINE
  5
1AA
100
AcDbEntity
100
AcDbLine
  8
0
 62
256
370
-1
 48
1.0
  6
BYLAYER
 10
123.2499999999999858
 20
91.7858983848622501
 30
0.0
 11
129.25
 21
88.3217967697244859
 31
0.0
  0
LINE
  5
1AB
100
AcDbEntity
100
AcDbLine
  8
0
 62
256
370
-1
 48
1.0
  6
BYLAYER
 10
45.5499999999999829
 20
8.9591034656191386
 30
0.0
 11
51.2499999999999787
 21
5.6682069312382666
 31
0.0
  0
LINE
  5
1AC
100
AcDbEntity
100
AcDbLine
  8
0
 62
256
370
-1
 48
1.0
  6
BYLAYER
 10
103.75
 20
91.7858983848622501
 30
0.0
 11
109.75
 21
88.3217967697244859
 31
0.0
  0
LINE
  5
1AD
100
AcDbEntity
100
AcDbLine
  8
0
 62
256
370
-1
 48
1.0
  6
BYLAYER
 10
6.5499999999999945
 20
67.4591034656191368
 30
0.0
 11
12.2499999999999929
 21
64.1682069312382737
 31
0.0
  0
LINE
  5
1AE
100
AcDbEntity
100
AcDbLine
  8
0
 62
256
370
-1
 48
1.0
  6
BYLAYER
 10
84.25
 20
91.7858983848622501
 30
0.0
 11
90.25
 21
88.3217967697244859
 31
0.0
  0
LINE
  5
1AF
100
AcDbEntity
100
AcDbLine
  8
0
 62
256
370
-1
 48
1.0
  6
BYLAYER
 10
6.5499999999999954
 20
47.9591034656191368
 30
0.0
 11
12.2499999999999929
 21
44.6682069312382737
 31
0.0
  0
LINE
  5
1B0
100
AcDbEntity
100
AcDbLine
  8
0
 62
256
370
-1
 48
1.0
  6
BYLAYER
 10
64.75
 20
91.7858983848622501
 30
0.0
 11
70.75
 21
88.3217967697244859
 31
0.0
  0
LINE
  5
1B1
100
AcDbEntity
100
AcDbLine
  8
0
 62
256
370
-1
 48
1.0
  6
BYLAYER
 10
6.5499999999999963
 20
28.4591034656191368
 30
0.0
 11
12.2499999999999929
 21
25.1682069312382666
 31
0.0
  0
LINE
  5
1B2
100
AcDbEntity
100
AcDbLine
  8
0
 62
256
370
-1
 48
1.0
  6
BYLAYER
 10
45.25
 20
91.7858983848622501
 30
0.0
 11
51.25
 21
88.3217967697244859
 31
0.0
  0
LINE
  5
1B3
100
AcDbEntity
100
AcDbLine
  8
0
 62
256
370
-1
 48
1.0
  6
BYLAYER
 10
26.0499999999999972
 20
8.9591034656191386
 30
0.0
 11
31.7499999999999929
 21
5.6682069312382666
 31
0.0
  0
LINE
  5
1B4
100
AcDbEntity
100
AcDbLine
  8
0
 62
256
370
-1
 48
1.0
  6
BYLAYER
 10
25.7499999999999964
 20
91.7858983848622501
 30
0.0
 11
31.75
 21
88.3217967697244859
 31
0.0
  0
LINE
  5
1B5
100
AcDbEntity
100
AcDbLine
  8
0
 62
256
370
-1
 48
1.0
  6
BYLAYER
 10
6.5499999999999972
 20
8.9591034656191386
 30
0.0
 11
12.2499999999999929
 21
5.6682069312382666
 31
0.0
  0
LINE
  5
1B6
100
AcDbEntity
100
AcDbLine
  8
0
 62
256
370
-1
 48
1.0
  6
BYLAYER
 10
6.2499999999999964
 20
91.7858983848622501
 30
0.0
 11
12.2499999999999982
 21
88.3217967697244859
 31
0.0
  0
ARC
  5
1B7
100
AcDbEntity
  8
0
 62
256
370
-1
 48
1.0
  6
BYLAYER
100
AcDbCircle
 10
12.25
 20
70.75
 30
0.0
 40
12.25
100
AcDbArc
 50
90.0
 51
180.0
  0
LINE
  5
1B8
100
AcDbEntity
100
AcDbLine
  8
0
 62
256
370
-1
 48
1.0
  6
BYLAYER
 10
6.25
 20
150.2858983848622643
 30
0.0
 11
12.2500000000000142
 21
146.8217967697245001
 31
0.0
  0
ARC
  5
1B9
100
AcDbEntity
  8
0
 62
256
370
-1
 48
1.0
  6
BYLAYER
100
AcDbCircle
 10
129.25
 20
70.75
 30
0.0
 40
12.25
100
AcDbArc
 50
0.0
 51
90.0
  0
LINE
  5
1BA
100
AcDbEntity
100
AcDbLine
  8
0
 62
256
370
-1
 48
1.0
  6
BYLAYER
 10
25.75
 20
150.2858983848622643
 30
0.0
 11
31.7500000000000142
 21
146.8217967697245001
 31
0.0
  0
ARC
  5
1BB
100
AcDbEntity
  8
0
 62
256
370
-1
 48
1.0
  6
BYLAYER
100
AcDbCircle
 10
129.2500005866309607
 20
12.2537911025144926
 30
0.0
 40
12.25
100
AcDbArc
 50
269.9999972562058588
 51
359.9822682304354657
  0
CIRCLE
  5
1BC
100
AcDbEntity
100
AcDbCircle
  8
0
 62
256
370
-1
 48
1.0
  6
BYLAYER
 10
100.0
 20
124.5
 30
0.0
 40
1.5
  0
CIRCLE
  5
1BD
100
AcDbEntity
100
AcDbCircle
  8
0
 62
256
370
-1
 48
1.0
  6
BYLAYER
 10
119.5
 20
78.0
 30
0.0
 40
1.5
  0
CIRCLE
  5
1BE
100
AcDbEntity
100
AcDbCircle
  8
0
 62
256
370
-1
 48
1.0
  6
BYLAYER
 10
41.5
 20
124.5
 30
0.0
 40
1.5
  0
CIRCLE
  5
1BF
100
AcDbEntity
100
AcDbCircle
  8
0
 62
256
370
-1
 48
1.0
  6
BYLAYER
 10
22.0
 20
78.0
 30
0.0
 40
1.5
  0
CIRCLE
  5
1C0
100
AcDbEntity
100
AcDbCircle
  8
0
 62
256
370
-1
 48
1.0
  6
BYLAYER
 10
119.5
 20
161.0
 30
0.0
 40
1.5
  0
CIRCLE
  5
1C1
100
AcDbEntity
100
AcDbCircle
  8
0
 62
256
370
-1
 48
1.0
  6
BYLAYER
 10
22.0
 20
5.0
 30
0.0
 40
1.5
  0
CIRCLE
  5
1C2
100
AcDbEntity
100
AcDbCircle
  8
0
 62
256
370
-1
 48
1.0
  6
BYLAYER
 10
22.0
 20
161.0
 30
0.0
 40
1.5
  0
CIRCLE
  5
1C3
100
AcDbEntity
100
AcDbCircle
  8
0
 62
256
370
-1
 48
1.0
  6
BYLAYER
 10
119.5
 20
5.0
 30
0.0
 40
1.5
  0
CIRCLE
  5
1C4
100
AcDbEntity
100
AcDbCircle
  8
0
 62
256
370
-1
 48
1.0
  6
BYLAYER
 10
22.0
 20
88.0
 30
0.0
 40
1.5
  0
CIRCLE
  5
1C5
100
AcDbEntity
100
AcDbCircle
  8
0
 62
256
370
-1
 48
1.0
  6
BYLAYER
 10
100.0
 20
41.5
 30
0.0
 40
1.5
  0
CIRCLE
  5
1C6
100
AcDbEntity
100
AcDbCircle
  8
0
 62
256
370
-1
 48
1.0
  6
BYLAYER
 10
119.5
 20
88.0
 30
0.0
 40
1.5
  0
CIRCLE
  5
1C7
100
AcDbEntity
100
AcDbCircle
  8
0
 62
256
370
-1
 48
1.0
  6
BYLAYER
 10
41.5
 20
41.5
 30
0.0
 40
1.5
  0
MTEXT
  5
1C8
100
AcDbEntity
100
AcDbMText
  8
0
 62
256
370
-1
 48
1.0
  6
BYLAYER
 10
70.7499999999999858
 20
163.3391016151377357
 30
0.0
 40
1.0
 41
0.0
 71
5
 72
1
  1
\H3;Resistors - 0603
  7
textstyle0
 50
0.0
 73
2
 44
1.0
  0
ENDSEC
  0
SECTION
  2
OBJECTS
  0
DICTIONARY
  5
C
100
AcDbDictionary
280
0
281
1
  3
ACAD_GROUP
350
D
  3
ACAD_LAYOUT
350
1A
  3
ACAD_MLINESTYLE
350
17
  3
ACAD_PLOTSETTINGS
350
19
  3
ACAD_PLOTSTYLENAME
350
E
  3
AcDbVariableDictionary
350
1C9
  3
QCAD_OBJECTS
350
1CA
  0
DICTIONARY
  5
D
100
AcDbDictionary
280
0
281
1
  0
ACDBDICTIONARYWDFLT
  5
E
100
AcDbDictionary
281
1
  3
Normal
350
F
100
AcDbDictionaryWithDefault
340
F
  0
ACDBPLACEHOLDER
  5
F
  0
DICTIONARY
  5
17
100
AcDbDictionary
280
0
281
1
  3
Standard
350
18
  0
MLINESTYLE
  5
18
100
AcDbMlineStyle
  2
STANDARD
 70
0
  3

 62
256
 51
90.0
 52
90.0
 71
2
 49
0.5
 62
256
  6
BYLAYER
 49
-0.5
 62
256
  6
BYLAYER
  0
DICTIONARY
  5
19
100
AcDbDictionary
280
0
281
1
  0
DICTIONARY
  5
1A
100
AcDbDictionary
281
1
  3
Layout1
350
1E
  3
Layout2
350
26
  3
Model
350
22
  0
LAYOUT
  5
1E
100
AcDbPlotSettings
  1

  2
none_device
  4

  6

 40
0.0
 41
0.0
 42
0.0
 43
0.0
 44
0.0
 45
0.0
 46
0.0
 47
0.0
 48
0.0
 49
0.0
140
0.0
141
0.0
142
1.0
143
1.0
 70
688
 72
0
 73
0
 74
5
  7

 75
16
147
1.0
148
0.0
149
0.0
100
AcDbLayout
  1
Layout1
 70
1
 71
1
 10
0.0
 20
0.0
 11
420.0
 21
297.0
 12
0.0
 22
0.0
 32
0.0
 14
100000000000000000000.0
 24
100000000000000000000.0
 34
100000000000000000000.0
 15
-100000000000000000000.0
 25
-100000000000000000000.0
 35
-100000000000000000000.0
146
0.0
 13
0.0
 23
0.0
 33
0.0
 16
1.0
 26
0.0
 36
0.0
 17
0.0
 27
1.0
 37
0.0
 76
0
330
1B
  0
LAYOUT
  5
22
100
AcDbPlotSettings
  1

  2
none_device
  4

  6

 40
0.0
 41
0.0
 42
0.0
 43
0.0
 44
0.0
 45
0.0
 46
0.0
 47
0.0
 48
0.0
 49
0.0
140
0.0
141
0.0
142
1.0
143
1.0
 70
1712
 72
0
 73
0
 74
0
  7

 75
0
147
1.0
148
0.0
149
0.0
100
AcDbLayout
  1
Model
 70
1
 71
0
 10
0.0
 20
0.0
 11
12.0
 21
9.0
 12
0.0
 22
0.0
 32
0.0
 14
0.0
 24
0.0
 34
0.0
 15
0.0
 25
0.0
 35
0.0
146
0.0
 13
0.0
 23
0.0
 33
0.0
 16
1.0
 26
0.0
 36
0.0
 17
0.0
 27
1.0
 37
0.0
 76
0
330
1F
  0
LAYOUT
  5
26
100
AcDbPlotSettings
  1

  2
none_device
  4

  6

 40
0.0
 41
0.0
 42
0.0
 43
0.0
 44
0.0
 45
0.0
 46
0.0
 47
0.0
 48
0.0
 49
0.0
140
0.0
141
0.0
142
1.0
143
1.0
 70
688
 72
0
 73
0
 74
5
  7

 75
16
147
1.0
148
0.0
149
0.0
100
AcDbLayout
  1
Layout2
 70
1
 71
2
 10
0.0
 20
0.0
 11
12.0
 21
9.0
 12
0.0
 22
0.0
 32
0.0
 14
0.0
 24
0.0
 34
0.0
 15
0.0
 25
0.0
 35
0.0
146
0.0
 13
0.0
 23
0.0
 33
0.0
 16
1.0
 26
0.0
 36
0.0
 17
0.0
 27
1.0
 37
0.0
 76
0
330
23
  0
DICTIONARY
  5
1C9
100
AcDbDictionary
281
1
  3
DIMASSOC
350
1CC
  3
HIDETEXT
350
1CB
  0
DICTIONARYVAR
  5
1CB
100
DictionaryVariables
280
0
  1
2
  0
DICTIONARYVAR
  5
1CC
100
DictionaryVariables
280
0
  1
1
  0
DICTIONARY
  5
1CA
100
AcDbDictionary
281
1
  3
ColorSettings/BackgroundColor
350
1CD
  3
ColorSettings/ColorMode
350
1CE
  3
Grid/DisplayGrid00
350
1CF
  3
Grid/DisplayGrid01
350
1D0
  3
Grid/DisplayGrid02
350
1D1
  3
Grid/DisplayGrid03
350
1D2
  3
Grid/GridSpacingX00
350
1D3
  3
Grid/GridSpacingX01
350
1D4
  3
Grid/GridSpacingX02
350
1D5
  3
Grid/GridSpacingX03
350
1D6
  3
Grid/GridSpacingY00
350
1D7
  3
Grid/GridSpacingY01
350
1D8
  3
Grid/GridSpacingY02
350
1D9
  3
Grid/GridSpacingY03
350
1DA
  3
Grid/IsometricGrid00
350
1DB
  3
Grid/IsometricGrid01
350
1DC
  3
Grid/IsometricGrid02
350
1DD
  3
Grid/IsometricGrid03
350
1DE
  3
Grid/IsometricProjection00
350
1DF
  3
Grid/IsometricProjection01
350
1E0
  3
Grid/IsometricProjection02
350
1E1
  3
Grid/IsometricProjection03
350
1E2
  3
Grid/MetaGridSpacingX00
350
1E3
  3
Grid/MetaGridSpacingX01
350
1E4
  3
Grid/MetaGridSpacingX02
350
1E5
  3
Grid/MetaGridSpacingX03
350
1E6
  3
Grid/MetaGridSpacingY00
350
1E7
  3
Grid/MetaGridSpacingY01
350
1E8
  3
Grid/MetaGridSpacingY02
350
1E9
  3
Grid/MetaGridSpacingY03
350
1EA
  3
MultiPageSettings/Columns
350
1EB
  3
MultiPageSettings/GlueMarginsBottom
350
1EC
  3
MultiPageSettings/GlueMarginsLeft
350
1ED
  3
MultiPageSettings/GlueMarginsRight
350
1EE
  3
MultiPageSettings/GlueMarginsTop
350
1EF
  3
MultiPageSettings/PrintCropMarks
350
1F0
  3
MultiPageSettings/Rows
350
1F1
  3
PageSettings/OffsetX
350
1F2
  3
PageSettings/OffsetY
350
1F3
  3
PageSettings/PageOrientation
350
1F4
  3
PageSettings/PaperHeight
350
1F5
  3
PageSettings/PaperWidth
350
1F6
  3
PageSettings/Scale
350
1F7
  3
PageSettings/ShowPaperBorders
350
1F8
  3
QCADVersion
350
1F9
  3
UnitSettings/PaperUnit
350
1FA
  3
ViewportCenter
350
1FB
  3
ViewportHeight
350
1FC
  3
ViewportWidth
350
1FD
  0
XRECORD
  5
1CD
330
1CA
100
AcDbXrecord
280
1
1000
White
  0
XRECORD
  5
1CE
330
1CA
100
AcDbXrecord
280
1
1000
FullColor
  0
XRECORD
  5
1CF
330
1CA
100
AcDbXrecord
280
1
290
1
  0
XRECORD
  5
1D0
330
1CA
100
AcDbXrecord
280
1
290
1
  0
XRECORD
  5
1D1
330
1CA
100
AcDbXrecord
280
1
290
1
  0
XRECORD
  5
1D2
330
1CA
100
AcDbXrecord
280
1
290
1
  0
XRECORD
  5
1D3
330
1CA
100
AcDbXrecord
280
1
1000
auto
  0
XRECORD
  5
1D4
330
1CA
100
AcDbXrecord
280
1
1000
auto
  0
XRECORD
  5
1D5
330
1CA
100
AcDbXrecord
280
1
1000
auto
  0
XRECORD
  5
1D6
330
1CA
100
AcDbXrecord
280
1
1000
auto
  0
XRECORD
  5
1D7
330
1CA
100
AcDbXrecord
280
1
1000
auto
  0
XRECORD
  5
1D8
330
1CA
100
AcDbXrecord
280
1
1000
auto
  0
XRECORD
  5
1D9
330
1CA
100
AcDbXrecord
280
1
1000
auto
  0
XRECORD
  5
1DA
330
1CA
100
AcDbXrecord
280
1
1000
auto
  0
XRECORD
  5
1DB
330
1CA
100
AcDbXrecord
280
1
290
0
  0
XRECORD
  5
1DC
330
1CA
100
AcDbXrecord
280
1
290
0
  0
XRECORD
  5
1DD
330
1CA
100
AcDbXrecord
280
1
290
0
  0
XRECORD
  5
1DE
330
1CA
100
AcDbXrecord
280
1
290
0
  0
XRECORD
  5
1DF
330
1CA
100
AcDbXrecord
280
1
 90
0
  0
XRECORD
  5
1E0
330
1CA
100
AcDbXrecord
280
1
 90
0
  0
XRECORD
  5
1E1
330
1CA
100
AcDbXrecord
280
1
 90
0
  0
XRECORD
  5
1E2
330
1CA
100
AcDbXrecord
280
1
 90
0
  0
XRECORD
  5
1E3
330
1CA
100
AcDbXrecord
280
1
1000
auto
  0
XRECORD
  5
1E4
330
1CA
100
AcDbXrecord
280
1
1000
auto
  0
XRECORD
  5
1E5
330
1CA
100
AcDbXrecord
280
1
1000
auto
  0
XRECORD
  5
1E6
330
1CA
100
AcDbXrecord
280
1
1000
auto
  0
XRECORD
  5
1E7
330
1CA
100
AcDbXrecord
280
1
1000
auto
  0
XRECORD
  5
1E8
330
1CA
100
AcDbXrecord
280
1
1000
auto
  0
XRECORD
  5
1E9
330
1CA
100
AcDbXrecord
280
1
1000
auto
  0
XRECORD
  5
1EA
330
1CA
100
AcDbXrecord
280
1
1000
auto
  0
XRECORD
  5
1EB
330
1CA
100
AcDbXrecord
280
1
 90
1
  0
XRECORD
  5
1EC
330
1CA
100
AcDbXrecord
280
1
 40
10.0
  0
XRECORD
  5
1ED
330
1CA
100
AcDbXrecord
280
1
 40
10.0
  0
XRECORD
  5
1EE
330
1CA
100
AcDbXrecord
280
1
 40
10.0
  0
XRECORD
  5
1EF
330
1CA
100
AcDbXrecord
280
1
 40
10.0
  0
XRECORD
  5
1F0
330
1CA
100
AcDbXrecord
280
1
290
0
  0
XRECORD
  5
1F1
330
1CA
100
AcDbXrecord
280
1
 90
1
  0
XRECORD
  5
1F2
330
1CA
100
AcDbXrecord
280
1
 40
0.0
  0
XRECORD
  5
1F3
330
1CA
100
AcDbXrecord
280
1
 40
0.0
  0
XRECORD
  5
1F4
330
1CA
100
AcDbXrecord
280
1
1000
Portrait
  0
XRECORD
  5
1F5
330
1CA
100
AcDbXrecord
280
1
 40
297.0
  0
XRECORD
  5
1F6
330
1CA
100
AcDbXrecord
280
1
 40
210.0
  0
XRECORD
  5
1F7
330
1CA
100
AcDbXrecord
280
1
1000
1:1
  0
XRECORD
  5
1F8
330
1CA
100
AcDbXrecord
280
1
290
1
  0
XRECORD
  5
1F9
330
1CA
100
AcDbXrecord
280
1
1000
3.15.4
  0
XRECORD
  5
1FA
330
1CA
100
AcDbXrecord
280
1
 90
4
  0
XRECORD
  5
1FC
330
1CA
100
AcDbXrecord
280
1
 40
177.7472337482710714
  0
XRECORD
  5
1FD
330
1CA
100
AcDbXrecord
280
1
 40
322.8423236514522046
  0
ENDSEC
  0
EOF
